<?xml version="1.0" encoding="utf-8"?>
<!-- Generator: Adobe Illustrator 21.0.2, SVG Export Plug-In . SVG Version: 6.00 Build 0)  -->
<svg version="1.1" id="Livello_1" xmlns="http://www.w3.org/2000/svg" xmlns:xlink="http://www.w3.org/1999/xlink" x="0px" y="0px"
	 viewBox="0 0 73.9 66" style="enable-background:new 0 0 73.9 66;" xml:space="preserve">
<style type="text/css">
	.st0{fill:#A6CBDA;}
	.st1{fill:#589EBC;}
	.st2{fill:#2C6780;}
	.st3{fill:#D7EFFF;}
	.st4{fill:#EABA36;}
	.st5{fill:#372022;}
	.st6{fill:#C4472A;}
	.st7{fill:#B54B24;}
	.st8{fill:#ECE651;}
	.st9{fill:#F7B667;}
	.st10{fill:#D3F0FF;}
	.st11{fill:#F1FFFF;}
	.st12{fill:#FCB562;}
	.st13{fill:#FFDA63;}
	.st14{fill:#E1A74E;}
	.st15{fill:#857529;}
	.st16{fill:#373215;}
	.st17{fill:#C3E6F4;}
	.st18{fill:#A5C4D9;}
	.st19{fill:#8CADD6;}
	.st20{fill:#FFFFFE;}
</style>
<g>
	<rect x="48.9" y="13" class="st0" width="22.2" height="35.7"/>
	<rect x="49.4" y="13.8" class="st1" width="21.3" height="2.2"/>
	<polygon class="st2" points="51.5,47 51,47 50.9,47 50.9,46 50,46 50,47 50,47.6 50,48 51,48 51.5,48 51.9,48 51.9,47 	"/>
	<polygon class="st2" points="68.5,47 69,47 69,47 69,46 70,46 70,47 70,47.6 70,48 69,48 68.5,48 68,48 68,47 	"/>
	<rect x="49.4" y="15.8" class="st3" width="21.3" height="2.2"/>
	<rect x="51" y="35" class="st4" width="18.1" height="1.9"/>
	<polygon class="st5" points="51.9,37.9 51.9,39.9 53,39.9 53,40.9 54,40.9 54,41.9 54.9,41.9 54.9,42.9 55.9,42.9 55.9,43.9 
		56.9,43.9 56.9,44.9 57.9,44.9 57.9,45.9 59,45.9 59,46.9 61,46.9 61,45.9 62.1,45.9 62.1,44.9 63,44.9 63,43.9 64,43.9 64,42.9 
		65,42.9 65,41.9 66,41.9 66,40.9 67,40.9 67,39.9 68,39.9 68,37.9 	"/>
	<polygon class="st6" points="51.9,35.9 51.9,37.9 53,37.9 53,38.9 54,38.9 54,39.9 54.9,39.9 54.9,40.9 55.9,40.9 55.9,41.9 
		56.9,41.9 56.9,42.9 57.9,42.9 57.9,43.9 59,43.9 59,44.9 61,44.9 61,43.9 62.1,43.9 62.1,42.9 63,42.9 63,41.9 64,41.9 64,40.9 
		65,40.9 65,39.9 66,39.9 66,38.9 67,38.9 67,37.9 68,37.9 68,35.9 	"/>
	
		<rect x="51" y="30" transform="matrix(-1 -1.224647e-16 1.224647e-16 -1 119.9752 61.9375)" class="st7" width="18.1" height="1.9"/>
	<polygon class="st8" points="68,29 68,27 67,27 67,26 66,26 66,25 65.1,25 65.1,24 64.1,24 64.1,23 63.1,23 63.1,22 62.1,22 
		62.1,21 61,21 61,20 59,20 59,21 57.9,21 57.9,22 57,22 57,23 56,23 56,24 55,24 55,25 54,25 54,26 53,26 53,27 51.9,27 51.9,29 	
		"/>
	<polygon class="st9" points="68,31 68,29 67,29 67,28 66,28 66,27 65.1,27 65.1,26 64.1,26 64.1,25 63.1,25 63.1,24 62.1,24 
		62.1,23 61,23 61,22 59,22 59,23 57.9,23 57.9,24 57,24 57,25 56,25 56,26 55,26 55,27 54,27 54,28 53,28 53,29 51.9,29 51.9,31 	
		"/>
	<polygon class="st10" points="51.9,13 51.9,2.6 49.4,2.6 10.7,2.6 9.7,2.6 9.7,13 10.7,13 10.7,53.2 43.1,53.2 49.4,53.2 51,53.2 
		51,49.3 49.4,49.3 49.4,13 	"/>
	<rect x="11.6" y="5.9" class="st11" width="39.3" height="2"/>
	<rect x="2.7" y="13" class="st12" width="8.1" height="36.4"/>
	<rect x="2.7" y="13" class="st13" width="8.1" height="5"/>
	<rect x="2.7" y="46" class="st14" width="8.1" height="2.5"/>
	<polygon class="st15" points="51,48.7 51,53.2 11.6,53.2 11.6,48.7 2.1,48.7 2.1,53.2 2.1,63.3 11.6,63.3 51,63.3 59.3,63.3 
		60.5,63.3 60.5,48.7 	"/>
	<rect x="19.1" y="51.6" class="st16" width="24.1" height="2.2"/>
	<rect x="2.7" y="60" class="st16" width="56.7" height="2.2"/>
	<rect x="2.7" y="58.9" class="st16" width="2.2" height="3.3"/>
	<rect x="56.8" y="58.9" class="st16" width="2.2" height="3.3"/>
	<rect x="19.6" y="13.4" class="st17" width="23" height="37.2"/>
	<rect x="19.6" y="19.1" class="st18" width="23" height="10.9"/>
	<rect x="19.6" y="13" class="st19" width="23" height="7"/>
	<polygon class="st20" points="40.6,20 40.6,21 39.6,21 39.6,22 38.6,22 37.6,22 37.6,23 36.6,23 36.6,24 35.6,24 35.6,25 34.6,25 
		34.6,26 33.6,26 33.6,27 32.6,27 32.6,28 31.6,28 31.6,29 30.6,29 30.6,30 29.6,30 29.6,31 28.6,31 28.6,32 27.6,32 27.6,33 
		26.6,33 26.6,34 25.6,34 25.6,35 24.6,35 24.6,36 23.6,36 23.6,37 22.6,37 22.6,38 21.6,38 21.6,39 20.6,39 20.6,40 19.6,40 
		19.6,50.2 22.8,50.2 22.8,49.2 23.8,49.2 23.8,48.2 24.8,48.2 24.8,47.2 25.8,47.2 25.8,46.2 26.8,46.2 26.8,45.2 27.8,45.2 
		27.8,44.2 28.8,44.2 28.8,43.2 29.8,43.2 29.8,42.2 30.8,42.2 30.8,41.2 31.8,41.2 31.8,40.2 32.8,40.2 32.8,39.2 33.8,39.2 
		33.8,38.2 34.8,38.2 34.8,37.2 35.8,37.2 35.8,36.2 36.8,36.2 36.8,35.2 37.8,35.2 37.8,34.2 38.8,34.2 38.8,33.2 39.8,33.2 
		39.8,32.2 40.8,32.2 41.8,32.2 41.8,31.2 42.8,31.2 42.8,30.2 43.8,30.2 43.8,20 	"/>
	<path d="M72.9,12v-1h-1v-0.1V10h-18V2h-1V1h-1V0H50L10,0.1V1H8.9v1H8v8.1H2V11H1v1H0v52h1l0,1H2v1h57.9v-1h1v-1.1h1v-12h10v-1h1V50
		h0.9v-2V12H72.9z M11.9,10.1V3.9h37.4l0.7,0V10v0.9V12l0,0h-1.1v1h-1v35.9H49V50h1v2h-6v-2V14v-2h-2H31.8h-2H20h-2v2v36v1.9h-6
		V13.1l0-2.1V10.1z M42,14v36H31.8V14H42z M29.8,14v36H20V14H29.8z M3.9,14H8h2v34h-6V14z M58,51.9V62h-54V49.9h6V53h1v0.9h7h2V52
		h9.9h2H42v2h9v-1h1v-3h6V51.9z M70.1,48h-8.2h-1H59h-1h-6h-2h0l0-34h0.9h19.2V48z"/>
</g>
</svg>
