<?xml version="1.0" encoding="utf-8"?>
<!-- Generator: Adobe Illustrator 21.0.2, SVG Export Plug-In . SVG Version: 6.00 Build 0)  -->
<svg version="1.1" id="Livello_1" xmlns="http://www.w3.org/2000/svg" xmlns:xlink="http://www.w3.org/1999/xlink" x="0px" y="0px"
	 viewBox="0 0 72.9 75" style="enable-background:new 0 0 72.9 75;" xml:space="preserve">
<style type="text/css">
	.st0{fill:#FFFBFF;}
	.st1{fill:#A5BCC6;}
	.st2{fill:#CC3A28;}
	.st3{fill:#CC3636;}
	.st4{fill:#FF9289;}
	.st5{fill:#305A96;}
	.st6{fill:#4079AE;}
	.st7{fill:#F8CD61;}
	.st8{fill:#D7B58E;}
	.st9{fill:#ED9841;}
	.st10{fill:#FFC727;}
	.st11{fill:#D4E7E6;}
	.st12{fill:#585846;}
	.st13{fill:#000800;}
</style>
<g>
	<polygon class="st0" points="48.2,10.9 48.2,2.6 2.5,2.6 2.5,10.9 2.5,26.7 2.5,61 48.2,61 55.2,61 55.2,10.9 	"/>
	<rect x="9.8" y="5.9" class="st1" width="20.3" height="2"/>
	<rect x="9.8" y="9.9" class="st1" width="20.3" height="2"/>
	<rect x="7.9" y="16" class="st2" width="44" height="7.9"/>
	<rect x="7.9" y="14.9" class="st3" width="44" height="9.9"/>
	<rect x="39" y="19.9" class="st4" width="10.1" height="2.2"/>
	<rect x="7.9" y="25.8" class="st5" width="38.4" height="2.1"/>
	<rect x="22" y="29.9" class="st5" width="4.1" height="4.1"/>
	<rect x="27.9" y="29.9" class="st5" width="6" height="4.1"/>
	<rect x="7.9" y="41.9" class="st5" width="4.1" height="4.1"/>
	<rect x="13.8" y="41.9" class="st5" width="10.7" height="4.1"/>
	<rect x="7.9" y="47.8" class="st5" width="10.1" height="4.1"/>
	<rect x="7.9" y="53.8" class="st5" width="8.1" height="4.1"/>
	<rect x="18" y="53.8" class="st5" width="4.1" height="4.1"/>
	<rect x="19.9" y="47.8" class="st5" width="7.5" height="4.1"/>
	<rect x="24.1" y="53.8" class="st5" width="6.5" height="4.1"/>
	<rect x="7.9" y="29.9" class="st6" width="12" height="9.9"/>
	<rect x="9.9" y="28.9" class="st7" width="8.1" height="11.9"/>
	<rect x="13.8" y="28.9" class="st8" width="4.2" height="11.9"/>
	<polygon class="st9" points="55.2,24.8 50.9,25.1 23.7,39.4 24.7,44.8 39,72.4 71.4,55.8 	"/>
	<polygon class="st10" points="68.6,49.8 49.6,49.8 49.6,50.8 47.6,50.8 47.6,51.8 45.6,51.8 45.6,52.8 43.6,52.8 43.6,53.8 
		41.6,53.8 41.6,54.8 39.6,54.8 39.6,55.8 37.6,55.8 37.6,56.8 35.6,56.8 35.6,57.8 33.6,57.8 33.6,62.9 35.6,62.9 35.6,67.2 
		37.6,67.2 37.6,69.8 47.2,69.8 47.2,66.6 51.9,66.6 51.9,62.9 60.7,62.9 60.7,59.7 68.6,59.7 	"/>
	<rect x="59.2" y="33.5" class="st11" width="7.1" height="2.8"/>
	<rect x="62.9" y="33.5" class="st11" width="3.4" height="2.8"/>
	<rect x="63.8" y="34.6" class="st11" width="4.9" height="3.8"/>
	<rect x="65.8" y="34.6" class="st11" width="2.9" height="14.2"/>
	<rect x="49.5" y="45.9" class="st11" width="19.1" height="2.9"/>
	<rect x="48.5" y="44.9" class="st11" width="3.5" height="2.9"/>
	<rect x="47.5" y="43.9" class="st11" width="3.5" height="2.9"/>
	<rect x="47.5" y="38.9" class="st11" width="3.5" height="2.9"/>
	<rect x="48.5" y="37.9" class="st11" width="3.5" height="2.9"/>
	<rect x="49.5" y="36.9" class="st11" width="15.4" height="2.9"/>
	<rect x="46.5" y="39.7" class="st11" width="3.5" height="6.2"/>
	<polygon class="st11" points="66.1,43.7 64.7,43.7 64.7,44.7 63.7,44.7 63.7,47.2 65.1,47.2 65.1,46.2 66.1,46.2 	"/>
	<g>
		<polygon class="st12" points="51,41 51,42 50,42 50,43.9 51,43.9 51,44.9 52,44.9 52,41 		"/>
		<polygon class="st12" points="64.9,41.9 64.9,42.9 64.8,42.9 63.9,42.9 63.9,43.9 63.9,44 62,44 62,44.9 52,44.9 52,45.9 62,45.9 
			63.9,45.9 63.9,45 64.8,45 64.8,44 64.8,43.9 64.9,43.9 65.8,43.9 65.8,42.9 65.8,41.9 		"/>
	</g>
	<g>
		<polygon class="st13" points="7,6.9 6,6.9 6,10.9 7,10.9 7,11.9 9.8,11.9 9.8,9.9 8,9.9 8,7.9 9.8,7.9 9.8,5.9 7,5.9 		"/>
		<rect x="22.1" y="5.9" class="st13" width="2" height="2"/>
		<rect x="22.1" y="9.9" class="st13" width="2" height="2"/>
		<rect x="26.1" y="5.9" class="st13" width="2" height="2"/>
		<rect x="26.1" y="9.9" class="st13" width="2" height="2"/>
		<path class="st13" d="M71.9,53.9L71.9,53.9l0-2h-1v-2h-1v-1h1v-1h1v-2V35h-1V33h-1v-1h-1v-1h-2v-1H60v-2h-1v-2h-1V11.8V7.9h-3.9
			h-4.2V0h-0.1H46H5v1H3v1H2v0.9H1v2H0v54h1v2h1V62h1v1h1v1h28v1.9h1v2h1v2h1v2h1v2h1v1h3v-1h2v-1h2v-1h2v-1h2v-1h2v-1h2v-1h2v-1h2
			v-1h2v-1h2v-1h2v-1h2v-1h2v-1h2v-1h2v-1h2v-1.1h1v-4H71.9z M30.9,60.1H6v-1H5v-1H4v-1.1v-50V5.9h1v-1h1V4h40v1.9H30.1v2H46v0v2
			H30.1v2h18.4v-0.1h1.5h4.2v12.1h-4.2v1h-2v1h-2v1h-2v1h-2v1h-2v1h-2v1h-2v1h-2v1h-2v1h-2v1h-2v1h-2v1h-1v1h-3v4.3h1v2h1v2h1v2h1v2
			h1v2h1v2h1v2h1v2h1V60.1z M68,45.9h-1v1h-1v1h-1V48H49.9v-1h-1v-1h-1v-6.3h1v-1h1v-1h13v1h1v1.1h-12v2h11v0h-1v2h2v-1h1v-1h1v-2
			v-2h-1v-1h-1v-1H49v1h-1v1h-1v1h-1V47h1v1h1v1h1v1h17v2h1v2h1v1h-1v1h-2v1h-2v1h-2v1h-2v1h-2v1h-2v1h-2v1h-2v1h-2v1h-2v1h-2v1h-2
			v1h-2v1h-2v-1h-1v-2h-1v-2h-1v-2h-1.2v-1.9h-0.9v-2.2h-1v-2h-1v-2h-1v-2h-1v-2h-1v-2h-1v-2h-1v-2h-1v-2h-1v-2.7h3v-1.3h2v-1h2v-1
			h2v-1h2v-1h2v-1h2v-1h2v-1h2v-1h2v-1h2v-1h2v-1h2v-1h2.2V28h1v2h1v2H57v2h3h5h1v1h1v1h1V45.9z"/>
	</g>
	<rect x="25.9" y="38.9" class="st9" width="3.8" height="1.9"/>
</g>
</svg>
