<?xml version="1.0" encoding="utf-8"?>
<!-- Generator: Adobe Illustrator 21.0.2, SVG Export Plug-In . SVG Version: 6.00 Build 0)  -->
<svg version="1.1" id="Livello_1" xmlns="http://www.w3.org/2000/svg" xmlns:xlink="http://www.w3.org/1999/xlink" x="0px" y="0px"
	 viewBox="0 0 66 76" style="enable-background:new 0 0 66 76;" xml:space="preserve">
<style type="text/css">
	.st0{fill:#D72E2D;}
	.st1{fill:#A74B1F;}
	.st2{fill:#FF9843;}
	.st3{fill:#FFD439;}
	.st4{fill:#440000;}
	.st5{fill:#F5907F;}
	.st6{fill:#9B0003;}
	.st7{fill:#BFB4B1;}
	.st8{fill:#87847C;}
	.st9{fill:#4E5047;}
	.st10{fill:#3D0000;}
	.st11{fill:#FFB1A5;}
	.st12{fill:#FF6667;}
	.st13{fill:#DA2936;}
	.st14{fill:#E6A98F;}
	.st15{fill:#96041C;}
</style>
<g>
	<rect x="5" y="41.8" class="st0" width="56.9" height="16"/>
	<g>
		<polygon class="st1" points="51.4,65.6 51.4,64.7 49.8,64.7 49.8,65.6 31.7,65.6 31.7,72.5 52.6,72.5 52.6,65.6 		"/>
		<rect x="6" y="65.8" class="st1" width="18.1" height="6.2"/>
		<rect x="34.6" y="57.5" class="st2" width="14.8" height="8.5"/>
		<polygon class="st2" points="17.6,65 17.6,58 6.9,58 6.9,65.1 9,65.1 9,66.1 19.4,66.1 19.4,65 		"/>
		<path class="st1" d="M14.9,60.7v-1H14V59h-3.5v0.4v0.5v3.7H12h1.9v-0.7H15v-1.2h-0.9v-1H14.9z M13.9,62.8H12v-1.2h1.9V62.8z
			 M12,60.7v-0.8h2v0.8H12z"/>
		<rect x="36" y="68.1" class="st2" width="1.9" height="4.2"/>
		<rect x="40.1" y="68.1" class="st2" width="1.9" height="4.2"/>
		<rect x="44.1" y="68.1" class="st2" width="1.9" height="4.2"/>
		<rect x="48" y="66" class="st2" width="2.1" height="5"/>
		<rect x="32.9" y="65" class="st2" width="1" height="3.2"/>
		<rect x="15.5" y="58.3" class="st1" width="17.4" height="4.7"/>
		<rect x="36.6" y="65.8" class="st2" width="11.2" height="0.9"/>
		<rect x="8" y="68.1" class="st2" width="2" height="3.9"/>
		<rect x="12.1" y="68.1" class="st2" width="2" height="3.9"/>
		<rect x="16.1" y="68.1" class="st2" width="2" height="3.9"/>
		<rect x="20" y="66.1" class="st2" width="2" height="4.9"/>
		<rect x="4" y="65.8" class="st2" width="2" height="5.2"/>
		<rect x="32.9" y="65" class="st2" width="1" height="3.2"/>
		<rect x="23.6" y="60.1" class="st1" width="7.7" height="4.3"/>
		<rect x="26.1" y="60.1" class="st2" width="1.9" height="4.3"/>
		<path class="st3" d="M51.1,58.7h-1.9v-2.2H47V56H37h-1.3h-0.9v1h-1v2.4h-0.9v5.7h1V66h0.9v1H36v1h12v-1h1.1v-0.9h1.1v-1h0.9V58.7z
			 M47,58.1v1.1h1.9v5H48V65h-1v1H37v-1h-0.8v-1h-1.1v-3.9H36V59h1v-1L47,58.1L47,58.1z"/>
		<rect x="17.9" y="59.1" class="st2" width="2.1" height="4"/>
		<rect x="22" y="60" class="st2" width="1.9" height="4.3"/>
		<rect x="20" y="60" class="st1" width="2.1" height="4.3"/>
		<polygon class="st2" points="31.3,51.2 29.4,51.2 29.4,50.1 18.6,50.1 18.6,51.2 16.5,51.2 16.5,56.8 18.6,56.8 18.6,58.3 
			29.4,58.3 29.4,56.8 31.3,56.8 		"/>
		<path class="st3" d="M32.1,51.9V51h-0.9v-0.9h-1v-1H29h-0.2v-1.5h-9.2l-0.4,0.7h-1l-0.4,0.8l-0.3,0.1l0.2,0.5h-0.9l-0.2,0.8
			l-0.8,0.2l-0.2,2l-0.7,0.2v6.3H17l0,0h2.1v1h11v-1h1v-1h1v-0.9h1.1V52L32.1,51.9L32.1,51.9z M31.1,56.1h-2v2h-10v-2h-2v-2.6l0,0
			V52h1l0,0h1v-1.9h0.6h9.2h0.2v2.1h1l0,0h1C31.1,52.2,31.1,56.1,31.1,56.1z"/>
		<path class="st1" d="M27.1,53v-1.4h-1.2v-1.1h-5V51v0.8V57h2h2.7v-1h1.5v-1.7h-1.2V53H27.1z M25.6,56h-2.7v-1.6h2.7V56z M22.9,53
			v-1.2h2.9V53H22.9z"/>
		<path class="st1" d="M45.3,61v-1.4h-1.2v-1.1h-5V59v0.8V65h2h2.7v-1h1.5v-1.7h-1.2V61H45.3z M43.8,64h-2.7v-1.6h2.7V64z M41.1,61
			v-1.2H44V61H41.1z"/>
		<rect x="32.1" y="57.2" class="st1" width="1.1" height="0.9"/>
		<rect x="31.1" y="58" class="st1" width="0.9" height="1"/>
		<polygon class="st3" points="20.1,66.1 9,66.1 9,65.1 8,65.1 8,64 7,64 7,60.5 7,60.1 8.1,60.1 8.1,59.1 9.1,59.1 9.1,58.6 
			9.1,58 9.9,58 12.1,58 12.1,57.1 12.1,56.1 9.9,56.1 9.9,57.1 9.1,57.1 8,57.1 8,58 8,58.2 8,58.2 8,58.1 7,58 7,58.8 6,58.8 
			6,60.5 5,60.5 5,66.1 6,66.1 7,66.1 7,67.1 7,68.1 8,68.1 20.1,68.1 20.1,67.1 21,67.1 21,66.1 		"/>
	</g>
	<g>
		<rect x="18" y="43.1" class="st4" width="2" height="4.2"/>
		<rect x="12" y="43.1" class="st4" width="2" height="8.9"/>
		<rect x="30.1" y="43.1" class="st4" width="2" height="7"/>
		<rect x="36.1" y="43.1" class="st4" width="2" height="8.9"/>
		<rect x="42.1" y="43.1" class="st4" width="2" height="8.9"/>
		<rect x="47.9" y="43.1" class="st4" width="2" height="8.9"/>
		<rect x="54" y="43.1" class="st4" width="2" height="8.9"/>
		<rect x="24" y="43.1" class="st4" width="2" height="3.9"/>
	</g>
	<g>
		<polygon class="st4" points="8.1,53.1 8.1,42 6.8,42 6.8,54.2 8.1,54.2 9,54.2 9,53.1 		"/>
		<path d="M65,12.1v-1h-1v-1H44V5h-1V3h-1V2h-1V1h-2V0H29v1h-2v1h-1v1h-1v2h-1v5.1H4V11H3v1H2v28h1v1h1v1v13.1H3V56H2v1H1v2H0v10h1
			v2h1v1h1v1h1.1v1H5v1h2v1h14v-1h2v-1h0.8v-1H25v-1h1v-1h1v-1.5h1.9V71H30v1h1v1h1.1v1.1H33v1h2V76h14v-0.3h1V75h1v-1h1v-0.9h1V72
			h1v-1h1v-1.9h1V60h6v-1h1.1v-1H64V42l0,0v-1h1v-1h1V12h-1V12.1z M28,7V6.1h1V5h1V4h8v1h1v1l0.7,0.1L39.8,7v6.1H28V7z M24,68h-2v2
			h-0.8v1H20v1H8.9v-1H7v-1H6v-2H5v-7h1v-2h1v-1h1v-0.9h1.9v-1H12v3h0.9v2h1v1.1h1V63h1v1.1h1.3v1h1.9v1H24V68z M32,58.1v1h-1V60v1
			v2.1h-2v1h-5h-4v-1h-2.1v-1h-1V61h-1v-1.9h-1v-3v-1.9V53h1v-2h0.9v-1h1.3v-1.2H20v-0.9h8v1.2h2.2v1h0.9V51H32v0.9h1.1V58L32,58.1
			L32,58.1z M51,68h-1v2.1h-1v0.6h-1V72H36v-1h-1v-1h-1.1v-2H33v-4.9V61h0.9v-2v-0.2H35V58h1v-1h2v-1h8v1h2v1h1v1h1v2.1h1V59l0,0
			v0.9V68z M60,55.1h-0.9v1h-3h-0.5h-4.2H51h-1h-3v-2h-9h-3v-3h-1.1l0,0v-0.9h-1.8v-1.9h-1v-0.9h-2v-1.2h-11V47H17v1.2h-0.7v1H15
			v0.9h-0.1h-2v3v1H12H9.9H7V42h3.3h6.3h34.7H60V55.1z"/>
		<rect x="6.6" y="30.4" class="st5" width="2.9" height="2.6"/>
		<polygon class="st6" points="24.8,18.3 24.8,19 25.7,19 25.7,20 25.7,24 25.7,25 23.8,25 23.8,24 10.7,24 10.7,25 9.8,25 9.8,30 
			8,30 8,25 8,24 8,20 8,19 8,18.3 		"/>
		<g>
			<polygon class="st7" points="40,6 39,6 39,5 38.1,5 38.1,3.9 30,3.9 30,5 29,5 29,5.9 28,5.9 28,24.1 29,24.1 29,25 30,25 30,26 
				38,26 38,25 38.9,25 38.9,24.1 39.9,24.1 			"/>
			<polygon class="st8" points="40,20 38.9,20 38.9,21 38,21 38,22.2 30,22.2 30,21 29,21 29,20 28,20 28,25.1 29,25.1 29,26.1 
				30,26.1 38,26.1 39,26.1 39,25.1 40,25.1 			"/>
			<polygon class="st9" points="39,25.1 39,26.1 38,26.1 30.1,26.1 29.1,26.1 29.1,25.1 28,25.1 28,34 29.1,34 29.1,35 30.1,35 
				30.1,36.1 38,36.1 38,35 39,35 39,34 40,34 40,25.1 			"/>
		</g>
		<polygon class="st0" points="23.7,24 23.7,25 24.8,25 24.8,26 25.7,26 25.7,28.3 24.8,28.3 24.8,29.2 23.7,29.2 23.7,30 8,30 
			8,29.2 8,28.3 8,26 8,25 8,24 		"/>
		<polygon class="st6" points="9,18.3 9,19 8,19 8,20 8,24 8,25 10,25 10,24.1 23,24.1 23,25 24,25 24,30 25.9,30 25.9,25 25.9,24 
			25.9,20.2 25.9,19 25.9,18.3 		"/>
		<polygon class="st0" points="10.1,24 10.1,25 9,25 9,26 8,26 8,28.3 9,28.3 9,29.2 10.1,29.2 10.1,30 25.7,30 25.7,29.2 
			25.7,28.3 25.7,26 25.7,25 25.7,24 		"/>
		<rect x="12.1" y="22.1" class="st10" width="1.8" height="8"/>
		<rect x="18.1" y="22.1" class="st10" width="1.8" height="8"/>
		<rect x="58.8" y="31.8" class="st5" width="2.1" height="0.4"/>
		<rect x="24.1" y="22.1" class="st10" width="1.8" height="8"/>
		<rect x="8" y="20" class="st6" width="2" height="4.9"/>
		<rect x="8.9" y="30" width="17.4" height="2"/>
		<polygon class="st10" points="9.8,22.1 9,22.1 8,22.1 8,30 8,31 9,31 9,30 9.8,30 		"/>
		<polygon class="st0" points="58.2,23.4 58.2,24.9 59,24.9 59,26 59.9,26 59.9,28.3 59,28.3 59,29.1 59,30 57.9,30 42.2,30 
			42.2,29.1 42.2,28.3 42.2,26 42.2,24.9 42.2,23.4 		"/>
		<polygon class="st6" points="59,18.2 59,19 59.9,19 59.9,20 59.9,23.9 59.9,24.9 58.1,24.9 58.1,23.9 44.9,23.9 44.9,24.9 
			44,24.9 44,30 42.2,30 42.2,24.9 42.2,23.9 42.2,20 42.2,19 42.2,18.2 		"/>
		<rect x="54.1" y="22" class="st10" width="1.8" height="8"/>
		<polygon class="st11" points="7,15.9 7,18.3 8,18.3 8,19 9,19 9,18.3 25.9,18.3 25.9,15.9 		"/>
		<polygon class="st11" points="60.6,15.4 60.9,18.3 59.9,18.3 59.9,19 59,19 59,18.3 42,18.3 42,15.1 		"/>
		<rect x="48.1" y="22" class="st10" width="1.8" height="8"/>
		<rect x="42.1" y="22.1" class="st10" width="1.8" height="8"/>
		<rect x="41.6" y="30" width="17.4" height="2"/>
		<polygon class="st5" points="42,16.1 42,14 59.9,14 61.1,14 61.1,16.4 61.1,32 60,32 59.9,32 59,32 59,30.9 59.9,30.9 59.9,16.1 
					"/>
		<polygon class="st12" points="42.1,35 61.2,34.7 61.2,32 42.1,32 		"/>
		<polygon class="st10" points="58.1,22.1 59,22.1 59.9,22.1 59.9,30 59.9,30.9 59,30.9 59,30 58.1,30 		"/>
		<polygon class="st13" points="41.2,36.1 41.2,37.1 39,37.1 39,38.1 29,38.1 29,37.1 26.8,37.1 26.8,36.1 7,36.1 7,38.1 7,38.9 
			7,40.1 7.1,40.1 7,40.1 26.8,40.1 26.8,40.1 41.2,40.1 41.2,40.1 61,40.1 61,40.1 61,38.1 61,36.1 		"/>
		<g>
			<polygon class="st14" points="25.9,33.5 7.2,33.8 7.2,15.1 6,15.1 6,39.1 7,39.1 7,36.1 25.9,36.1 			"/>
			<polygon class="st14" points="60.9,15 60.9,34 42,34 42,36.1 60.9,36.1 60.9,39 61.9,39 61.9,15 			"/>
		</g>
		<polygon class="st5" points="25.9,16.1 25.9,14 8,14 7,14 7,16.1 7,32 7.9,32 8,32 8.9,32 8.9,31 8.1,31 8.1,16.1 		"/>
		<rect x="7" y="32" class="st12" width="18.9" height="2"/>
	</g>
	<rect x="7" y="38.9" class="st14" width="1.1" height="1.2"/>
	<rect x="60" y="39.1" class="st14" width="1" height="1"/>
	<polygon class="st15" points="8,42 8,43.1 56,43.1 56,52 47,52 35,52 35,54.2 47,54.2 47,56.1 59.1,56.1 59.1,55.1 60.3,55.1 
		60.3,43.1 60.3,42 	"/>
	<rect x="29.1" y="49.1" class="st3" width="1.2" height="2"/>
	<rect x="18" y="50.1" class="st3" width="1" height="1"/>
	<polygon points="61.1,15 60.9,15 60.9,13.5 61.5,13.5 	"/>
</g>
</svg>
