<?xml version="1.0" encoding="utf-8"?>
<!-- Generator: Adobe Illustrator 21.0.2, SVG Export Plug-In . SVG Version: 6.00 Build 0)  -->
<svg version="1.1" id="Livello_1" xmlns="http://www.w3.org/2000/svg" xmlns:xlink="http://www.w3.org/1999/xlink" x="0px" y="0px"
	 viewBox="0 0 66.5 66.4" style="enable-background:new 0 0 66.5 66.4;" xml:space="preserve">
<style type="text/css">
	.st0{fill:#FFCD00;}
	.st1{fill:#D38C0F;}
	.st2{fill:#FFE97F;}
	.st3{fill:#D2841A;}
	.st4{fill:#FFF572;}
	.st5{fill:#9A4102;}
	.st6{fill:#4F2204;}
	.st7{fill:#F47600;}
	.st8{fill:#EDBE00;}
	.st9{fill:#FFF651;}
	.st10{fill:#DDAB1C;}
	.st11{fill:#EFCE3D;}
	.st12{fill:#823B00;}
	.st13{fill:#FBCA68;}
	.st14{fill:#FFEA6E;}
	.st15{fill:#FFF651;stroke:#FFEA6E;stroke-width:0.2763;stroke-miterlimit:10;}
</style>
<g>
	<polygon class="st0" points="42,12.1 33.2,3 23.2,12.1 17.5,17.7 8.3,17.7 8.3,25.9 3,33.2 7.5,38.2 8,48.7 18,49.6 33.2,63.8 
		47.4,49.3 58,48.7 59.1,41 59.1,37.5 63.7,33.4 58,27.2 58.3,18.5 48.5,17.2 	"/>
	<rect x="9.8" y="19.2" class="st1" width="46" height="0.5"/>
	<path d="M60.4,27.2l0-9.6h-0.6v-1.2h-1.1v-0.7H49L33.3,0l-0.8,0.8l0,0L17.5,15.7H7.8v0.7H6.7v1.2H6v9.6l-6,6l2.7,2.7l0,0l3.6,3.6H6
		l0,9.7h0.6v1.2h1.1V51h10.1v0l12.7,12.7l0,0l2.7,2.7l0,0l0,0l2.7-2.7l0,0L48.6,51v0h10.1v-0.7h1.1v-1.2h0.6v-9.7h-0.3l3.6-3.6l0,0
		l2.7-2.7L60.4,27.2z M57,37.3v5.4v4.9h-4.9h-5.4L33.2,61L19.8,47.5h-5.4H9.5V37.3l-4.1-4.1L9.5,29v-5.4v-4.5H14h5.4L33.2,5.3
		l13.9,13.9h5.4H57V29l4.1,4.1L57,37.3z"/>
	<g>
		<polygon class="st2" points="6.9,33.3 7.7,33.3 7.7,32.5 8.5,32.5 8.5,31.7 9.3,31.7 9.3,30.8 10.2,30.8 10.2,30 11,30 11,29.2 
			11.8,29.2 11.8,28.3 12.7,28.3 12.7,27.5 13.5,27.5 13.5,26.7 14.3,26.7 14.3,25.9 15.1,25.9 15.1,25 16,25 16,24.2 16.8,24.2 
			16.8,23.4 17.6,23.4 17.6,22.5 18.5,22.5 18.5,21.7 19.3,21.7 19.3,20.9 20.1,20.9 20.1,20.2 20.9,20.2 20.9,19.3 21.7,19.3 
			21.7,18.5 22.5,18.5 22.5,17.7 23.3,17.7 23.3,16.8 24.2,16.8 24.2,16 25,16 25,15.2 25.8,15.2 25.8,14.3 26.7,14.3 26.7,13.5 
			27.5,13.5 27.5,12.7 28.3,12.7 28.3,11.9 29.1,11.9 29.1,11 30,11 30,10.2 30.8,10.2 30.8,9.4 31.6,9.4 31.6,8.5 32.5,8.5 
			32.5,7.7 33.3,7.7 33.3,6.9 34.1,6.9 34.1,5.4 32.7,5.4 32.7,6.3 31.8,6.3 31.8,7.1 31,7.1 31,7.9 30.2,7.9 30.2,8.8 29.3,8.8 
			29.3,9.6 28.5,9.6 28.5,10.4 27.7,10.4 27.7,11.2 26.9,11.2 26.9,12.1 26,12.1 26,12.9 25.2,12.9 25.2,13.7 24.4,13.7 24.4,14.6 
			23.5,14.6 23.5,15.4 22.7,15.4 22.7,16.2 21.9,16.2 21.9,17 21.1,17 21.1,17.9 20.2,17.9 20.2,18.7 19.4,18.7 19.4,19.4 
			18.7,19.4 18.7,20.3 17.8,20.3 17.8,21.1 17,21.1 17,21.9 16.2,21.9 16.2,22.8 15.4,22.8 15.4,23.6 14.5,23.6 14.5,24.4 
			13.7,24.4 13.7,25.2 12.9,25.2 12.9,26.1 12,26.1 12,26.9 11.2,26.9 11.2,27.7 10.4,27.7 10.4,28.6 9.5,28.6 9.5,29.4 8.7,29.4 
			8.7,30.2 7.9,30.2 7.9,31 7.1,31 7.1,31.9 6.2,31.9 6.2,32.7 5.4,32.7 5.4,34.1 6.9,34.1 		"/>
		<polygon class="st3" points="60.4,32.4 60.4,31.6 59.6,31.6 59.6,30.8 58.7,30.8 58.7,29.9 57.9,29.9 57.9,29.1 57.1,29.1 
			57.1,28.3 56.3,28.3 56.3,27.4 55.4,27.4 55.4,26.6 54.6,26.6 54.6,25.8 53.8,25.8 53.8,25 52.9,25 52.9,24.1 52.1,24.1 
			52.1,23.3 51.3,23.3 51.3,22.5 50.5,22.5 50.5,21.6 49.6,21.6 49.6,20.8 48.8,20.8 48.8,20 48,20 48,19.2 47.2,19.2 47.2,18.4 
			46.4,18.4 46.4,17.6 45.6,17.6 45.6,16.8 44.7,16.8 44.7,15.9 43.9,15.9 43.9,15.1 43.1,15.1 43.1,14.3 42.3,14.3 42.3,13.5 
			41.4,13.5 41.4,12.6 40.6,12.6 40.6,11.8 39.8,11.8 39.8,11 38.9,11 38.9,10.1 38.1,10.1 38.1,9.3 37.3,9.3 37.3,8.5 36.5,8.5 
			36.5,7.6 35.6,7.6 35.6,6.8 34.8,6.8 34.8,6 34,6 34,5.2 32.5,5.2 32.5,6.6 33.3,6.6 33.3,7.4 34.2,7.4 34.2,8.3 35,8.3 35,9.1 
			35.8,9.1 35.8,9.9 36.7,9.9 36.7,10.8 37.5,10.8 37.5,11.6 38.3,11.6 38.3,12.4 39.2,12.4 39.2,13.2 40,13.2 40,14.1 40.8,14.1 
			40.8,14.9 41.6,14.9 41.6,15.7 42.5,15.7 42.5,16.6 43.3,16.6 43.3,17.4 44.1,17.4 44.1,18.2 45,18.2 45,19 45.8,19 45.8,19.9 
			46.5,19.9 46.5,20.6 47.3,20.6 47.3,21.4 48.2,21.4 48.2,22.3 49,22.3 49,23.1 49.8,23.1 49.8,23.9 50.7,23.9 50.7,24.8 
			51.5,24.8 51.5,25.6 52.3,25.6 52.3,26.4 53.1,26.4 53.1,27.2 54,27.2 54,28.1 54.8,28.1 54.8,28.9 55.6,28.9 55.6,29.7 
			56.5,29.7 56.5,30.6 57.3,30.6 57.3,31.4 58.1,31.4 58.1,32.2 58.9,32.2 58.9,33 59.8,33 59.8,33.9 61.2,33.9 61.2,32.4 		"/>
		<polygon class="st3" points="6.1,32.8 6.9,32.8 6.9,31.9 7.7,31.9 7.7,31.1 8.6,31.1 8.6,30.3 9.4,30.3 9.4,29.4 10.2,29.4 
			10.2,28.6 11.1,28.6 11.1,27.8 11.9,27.8 11.9,26.9 12.7,26.9 12.7,26.1 13.5,26.1 13.5,25.3 14.4,25.3 14.4,24.5 15.2,24.5 
			15.2,23.6 16,23.6 16,22.8 16.9,22.8 16.9,22 17.7,22 17.7,21.1 18.5,21.1 18.5,20.3 19.4,20.3 19.4,19.6 20.1,19.6 20.1,18.8 
			20.9,18.8 20.9,17.9 21.7,17.9 21.7,17.1 22.6,17.1 22.6,16.3 23.4,16.3 23.4,15.4 24.2,15.4 24.2,14.6 25.1,14.6 25.1,13.8 
			25.9,13.8 25.9,13 26.7,13 26.7,12.1 27.5,12.1 27.5,11.3 28.4,11.3 28.4,10.5 29.2,10.5 29.2,9.6 30,9.6 30,8.8 30.9,8.8 30.9,8 
			31.7,8 31.7,7.2 32.5,7.2 32.5,6.3 33.3,6.3 33.3,4.9 31.9,4.9 31.9,5.7 31.1,5.7 31.1,6.5 30.2,6.5 30.2,7.4 29.4,7.4 29.4,8.2 
			28.6,8.2 28.6,9 27.8,9 27.8,9.8 26.9,9.8 26.9,10.7 26.1,10.7 26.1,11.5 25.3,11.5 25.3,12.3 24.4,12.3 24.4,13.2 23.6,13.2 
			23.6,14 22.8,14 22.8,14.8 22,14.8 22,15.6 21.1,15.6 21.1,16.5 20.3,16.5 20.3,17.3 19.5,17.3 19.5,18.1 18.6,18.1 18.6,18.9 
			17.9,18.9 17.9,19.7 17.1,19.7 17.1,20.5 16.2,20.5 16.2,21.4 15.4,21.4 15.4,22.2 14.6,22.2 14.6,23 13.8,23 13.8,23.8 
			12.9,23.8 12.9,24.7 12.1,24.7 12.1,25.5 11.3,25.5 11.3,26.3 10.4,26.3 10.4,27.2 9.6,27.2 9.6,28 8.8,28 8.8,28.8 8,28.8 
			8,29.6 7.1,29.6 7.1,30.5 6.3,30.5 6.3,31.3 5.5,31.3 5.5,32.1 4.6,32.1 4.6,33.6 6.1,33.6 		"/>
		<polygon class="st3" points="6.1,32.8 6.9,32.8 6.9,31.9 7.7,31.9 7.7,31.1 8.6,31.1 8.6,30.3 9.4,30.3 9.4,29.4 10.2,29.4 
			10.2,28.6 11.1,28.6 11.1,27.8 11.9,27.8 11.9,26.9 12.7,26.9 12.7,26.1 13.5,26.1 13.5,25.3 14.4,25.3 14.4,24.5 15.2,24.5 
			15.2,23.6 16,23.6 16,22.8 16.9,22.8 16.9,22 17.7,22 17.7,21.1 18.5,21.1 18.5,20.3 19.4,20.3 19.4,19.6 20.1,19.6 20.1,18.8 
			20.9,18.8 20.9,17.9 21.7,17.9 21.7,17.1 22.6,17.1 22.6,16.3 23.4,16.3 23.4,15.4 24.2,15.4 24.2,14.6 25.1,14.6 25.1,13.8 
			25.9,13.8 25.9,13 26.7,13 26.7,12.1 27.5,12.1 27.5,11.3 28.4,11.3 28.4,10.5 29.2,10.5 29.2,9.6 30,9.6 30,8.8 30.9,8.8 30.9,8 
			31.7,8 31.7,7.2 32.5,7.2 32.5,6.3 33.3,6.3 33.3,4.9 31.9,4.9 31.9,5.7 31.1,5.7 31.1,6.5 30.2,6.5 30.2,7.4 29.4,7.4 29.4,8.2 
			28.6,8.2 28.6,9 27.8,9 27.8,9.8 26.9,9.8 26.9,10.7 26.1,10.7 26.1,11.5 25.3,11.5 25.3,12.3 24.4,12.3 24.4,13.2 23.6,13.2 
			23.6,14 22.8,14 22.8,14.8 22,14.8 22,15.6 21.1,15.6 21.1,16.5 20.3,16.5 20.3,17.3 19.5,17.3 19.5,18.1 18.6,18.1 18.6,18.9 
			17.9,18.9 17.9,19.7 17.1,19.7 17.1,20.5 16.2,20.5 16.2,21.4 15.4,21.4 15.4,22.2 14.6,22.2 14.6,23 13.8,23 13.8,23.8 
			12.9,23.8 12.9,24.7 12.1,24.7 12.1,25.5 11.3,25.5 11.3,26.3 10.4,26.3 10.4,27.2 9.6,27.2 9.6,28 8.8,28 8.8,28.8 8,28.8 
			8,29.6 7.1,29.6 7.1,30.5 6.3,30.5 6.3,31.3 5.5,31.3 5.5,32.1 4.6,32.1 4.6,33.6 6.1,33.6 		"/>
		<polygon class="st2" points="59.3,33.3 58.5,33.3 58.5,34.2 57.6,34.2 57.6,35 56.8,35 56.8,35.8 56,35.8 56,36.6 55.1,36.6 
			55.1,37.5 54.3,37.5 54.3,38.3 53.5,38.3 53.5,39.1 52.7,39.1 52.7,40 51.8,40 51.8,40.8 51,40.8 51,41.6 50.2,41.6 50.2,42.4 
			49.3,42.4 49.3,43.3 48.5,43.3 48.5,44.1 47.7,44.1 47.7,44.9 46.9,44.9 46.9,45.8 46,45.8 46,46.5 45.3,46.5 45.3,47.3 
			44.5,47.3 44.5,48.2 43.6,48.2 43.6,49 42.8,49 42.8,49.8 42,49.8 42,50.6 41.1,50.6 41.1,51.5 40.3,51.5 40.3,52.3 39.5,52.3 
			39.5,53.1 38.7,53.1 38.7,54 37.8,54 37.8,54.8 37,54.8 37,55.6 36.2,55.6 36.2,56.4 35.3,56.4 35.3,57.3 34.5,57.3 34.5,58.1 
			33.7,58.1 33.7,58.9 32.9,58.9 32.9,59.8 32,59.8 32,61.2 33.5,61.2 33.5,60.4 34.3,60.4 34.3,59.5 35.1,59.5 35.1,58.7 36,58.7 
			36,57.9 36.8,57.9 36.8,57.1 37.6,57.1 37.6,56.2 38.5,56.2 38.5,55.4 39.3,55.4 39.3,54.6 40.1,54.6 40.1,53.7 40.9,53.7 
			40.9,52.9 41.8,52.9 41.8,52.1 42.6,52.1 42.6,51.3 43.4,51.3 43.4,50.4 44.3,50.4 44.3,49.6 45.1,49.6 45.1,48.8 45.9,48.8 
			45.9,47.9 46.7,47.9 46.7,47.2 47.5,47.2 47.5,46.4 48.3,46.4 48.3,45.6 49.1,45.6 49.1,44.7 50,44.7 50,43.9 50.8,43.9 
			50.8,43.1 51.6,43.1 51.6,42.2 52.5,42.2 52.5,41.4 53.3,41.4 53.3,40.6 54.1,40.6 54.1,39.8 54.9,39.8 54.9,38.9 55.8,38.9 
			55.8,38.1 56.6,38.1 56.6,37.3 57.4,37.3 57.4,36.4 58.3,36.4 58.3,35.6 59.1,35.6 59.1,34.8 59.9,34.8 59.9,33.9 60.7,33.9 
			60.7,32.5 59.3,32.5 		"/>
		<polygon class="st3" points="5.7,34.2 5.7,35.1 6.6,35.1 6.6,35.9 7.4,35.9 7.4,36.7 8.2,36.7 8.2,37.5 9.1,37.5 9.1,38.4 
			9.9,38.4 9.9,39.2 10.7,39.2 10.7,40 11.5,40 11.5,40.9 12.4,40.9 12.4,41.7 13.2,41.7 13.2,42.5 14,42.5 14,43.3 14.9,43.3 
			14.9,44.2 15.7,44.2 15.7,45 16.5,45 16.5,45.8 17.3,45.8 17.3,46.7 18.2,46.7 18.2,47.5 18.9,47.5 18.9,48.2 19.7,48.2 19.7,49 
			20.6,49 20.6,49.9 21.4,49.9 21.4,50.7 22.2,50.7 22.2,51.5 23.1,51.5 23.1,52.4 23.9,52.4 23.9,53.2 24.7,53.2 24.7,54 25.5,54 
			25.5,54.9 26.4,54.9 26.4,55.7 27.2,55.7 27.2,56.5 28,56.5 28,57.3 28.9,57.3 28.9,58.2 29.7,58.2 29.7,59 30.5,59 30.5,59.8 
			31.3,59.8 31.3,60.7 32.2,60.7 32.2,61.5 33.6,61.5 33.6,60 32.8,60 32.8,59.2 32,59.2 32,58.4 31.1,58.4 31.1,57.5 30.3,57.5 
			30.3,56.7 29.5,56.7 29.5,55.9 28.7,55.9 28.7,55.1 27.8,55.1 27.8,54.2 27,54.2 27,53.4 26.2,53.4 26.2,52.6 25.3,52.6 
			25.3,51.7 24.5,51.7 24.5,50.9 23.7,50.9 23.7,50.1 22.8,50.1 22.8,49.3 22,49.3 22,48.4 21.2,48.4 21.2,47.6 20.4,47.6 
			20.4,46.8 19.6,46.8 19.6,46 18.8,46 18.8,45.2 18,45.2 18,44.4 17.1,44.4 17.1,43.5 16.3,43.5 16.3,42.7 15.5,42.7 15.5,41.9 
			14.7,41.9 14.7,41.1 13.8,41.1 13.8,40.2 13,40.2 13,39.4 12.2,39.4 12.2,38.6 11.3,38.6 11.3,37.7 10.5,37.7 10.5,36.9 9.7,36.9 
			9.7,36.1 8.9,36.1 8.9,35.3 8,35.3 8,34.4 7.2,34.4 7.2,33.6 6.4,33.6 6.4,32.8 4.9,32.8 4.9,34.2 		"/>
		<polygon class="st3" points="60.1,33.9 59.2,33.9 59.2,34.7 58.4,34.7 58.4,35.6 57.6,35.6 57.6,36.4 56.7,36.4 56.7,37.2 
			55.9,37.2 55.9,38 55.1,38 55.1,38.9 54.3,38.9 54.3,39.7 53.4,39.7 53.4,40.5 52.6,40.5 52.6,41.4 51.8,41.4 51.8,42.2 
			50.9,42.2 50.9,43 50.1,43 50.1,43.8 49.3,43.8 49.3,44.7 48.5,44.7 48.5,45.5 47.6,45.5 47.6,46.3 46.8,46.3 46.8,47.1 
			46.1,47.1 46.1,47.9 45.2,47.9 45.2,48.7 44.4,48.7 44.4,49.5 43.6,49.5 43.6,50.4 42.7,50.4 42.7,51.2 41.9,51.2 41.9,52 
			41.1,52 41.1,52.9 40.3,52.9 40.3,53.7 39.4,53.7 39.4,54.5 38.6,54.5 38.6,55.3 37.8,55.3 37.8,56.2 36.9,56.2 36.9,57 36.1,57 
			36.1,57.8 35.3,57.8 35.3,58.7 34.5,58.7 34.5,59.5 33.6,59.5 33.6,60.3 32.8,60.3 32.8,61.8 34.2,61.8 34.2,60.9 35.1,60.9 
			35.1,60.1 35.9,60.1 35.9,59.3 36.7,59.3 36.7,58.5 37.6,58.5 37.6,57.6 38.4,57.6 38.4,56.8 39.2,56.8 39.2,56 40,56 40,55.1 
			40.9,55.1 40.9,54.3 41.7,54.3 41.7,53.5 42.5,53.5 42.5,52.7 43.4,52.7 43.4,51.8 44.2,51.8 44.2,51 45,51 45,50.2 45.9,50.2 
			45.9,49.3 46.7,49.3 46.7,48.5 47.5,48.5 47.5,47.8 48.2,47.8 48.2,46.9 49.1,46.9 49.1,46.1 49.9,46.1 49.9,45.3 50.7,45.3 
			50.7,44.5 51.6,44.5 51.6,43.6 52.4,43.6 52.4,42.8 53.2,42.8 53.2,42 54,42 54,41.1 54.9,41.1 54.9,40.3 55.7,40.3 55.7,39.5 
			56.5,39.5 56.5,38.7 57.4,38.7 57.4,37.8 58.2,37.8 58.2,37 59,37 59,36.2 59.8,36.2 59.8,35.3 60.7,35.3 60.7,34.5 61.5,34.5 
			61.5,33.1 60.1,33.1 		"/>
		<polygon class="st3" points="60.1,33.9 59.2,33.9 59.2,34.7 58.4,34.7 58.4,35.6 57.6,35.6 57.6,36.4 56.7,36.4 56.7,37.2 
			55.9,37.2 55.9,38 55.1,38 55.1,38.9 54.3,38.9 54.3,39.7 53.4,39.7 53.4,40.5 52.6,40.5 52.6,41.4 51.8,41.4 51.8,42.2 
			50.9,42.2 50.9,43 50.1,43 50.1,43.8 49.3,43.8 49.3,44.7 48.5,44.7 48.5,45.5 47.6,45.5 47.6,46.3 46.8,46.3 46.8,47.1 
			46.1,47.1 46.1,47.9 45.2,47.9 45.2,48.7 44.4,48.7 44.4,49.5 43.6,49.5 43.6,50.4 42.7,50.4 42.7,51.2 41.9,51.2 41.9,52 
			41.1,52 41.1,52.9 40.3,52.9 40.3,53.7 39.4,53.7 39.4,54.5 38.6,54.5 38.6,55.3 37.8,55.3 37.8,56.2 36.9,56.2 36.9,57 36.1,57 
			36.1,57.8 35.3,57.8 35.3,58.7 34.5,58.7 34.5,59.5 33.6,59.5 33.6,60.3 32.8,60.3 32.8,61.8 34.2,61.8 34.2,60.9 35.1,60.9 
			35.1,60.1 35.9,60.1 35.9,59.3 36.7,59.3 36.7,58.5 37.6,58.5 37.6,57.6 38.4,57.6 38.4,56.8 39.2,56.8 39.2,56 40,56 40,55.1 
			40.9,55.1 40.9,54.3 41.7,54.3 41.7,53.5 42.5,53.5 42.5,52.7 43.4,52.7 43.4,51.8 44.2,51.8 44.2,51 45,51 45,50.2 45.9,50.2 
			45.9,49.3 46.7,49.3 46.7,48.5 47.5,48.5 47.5,47.8 48.2,47.8 48.2,46.9 49.1,46.9 49.1,46.1 49.9,46.1 49.9,45.3 50.7,45.3 
			50.7,44.5 51.6,44.5 51.6,43.6 52.4,43.6 52.4,42.8 53.2,42.8 53.2,42 54,42 54,41.1 54.9,41.1 54.9,40.3 55.7,40.3 55.7,39.5 
			56.5,39.5 56.5,38.7 57.4,38.7 57.4,37.8 58.2,37.8 58.2,37 59,37 59,36.2 59.8,36.2 59.8,35.3 60.7,35.3 60.7,34.5 61.5,34.5 
			61.5,33.1 60.1,33.1 		"/>
		<rect x="9.4" y="19.2" class="st0" width="47.4" height="29.5"/>
		<rect x="9.4" y="29.4" class="st1" width="0.7" height="7.5"/>
		<rect x="9.5" y="19.5" class="st4" width="46" height="1"/>
		
			<rect x="-3.7" y="33.3" transform="matrix(-1.836970e-16 1 -1 -1.836970e-16 43.6404 23.4486)" class="st4" width="27.6" height="0.5"/>
		<rect x="19.6" y="34.7" class="st5" width="9.1" height="11.9"/>
		<rect x="21" y="35.2" class="st5" width="6.7" height="11.9"/>
		<rect x="22.2" y="35.8" class="st5" width="4.6" height="11.9"/>
		<rect x="54" y="20.2" class="st4" width="1.2" height="1.2"/>
		<rect x="54.3" y="20.5" class="st4" width="1.2" height="1.2"/>
		<rect x="54.5" y="20.5" class="st4" width="1.2" height="1.2"/>
		<rect x="54.8" y="20.5" class="st4" width="1.2" height="1.2"/>
		<rect x="54.8" y="21" class="st4" width="2" height="1.2"/>
		<rect x="54.3" y="20.1" class="st4" width="2" height="1.2"/>
		<rect x="55.8" y="22.2" class="st6" width="1" height="25.8"/>
		<rect x="54.8" y="22.2" class="st1" width="1.8" height="25.4"/>
		<g>
			<rect x="53.4" y="21.5" class="st7" width="1.3" height="1.1"/>
			<rect x="53.1" y="21.2" class="st7" width="1.3" height="1.1"/>
			<rect x="52.9" y="21" class="st7" width="1.3" height="1.1"/>
			<g>
				<rect x="47" y="20.9" class="st8" width="6.6" height="1.2"/>
				<rect x="46.2" y="21.4" class="st7" width="1.2" height="1.2"/>
				<rect x="46.7" y="20.9" class="st7" width="1.2" height="1.2"/>
				<rect x="46.2" y="32.6" class="st5" width="0.8" height="1.3"/>
				<rect x="46.5" y="32.8" class="st5" width="0.8" height="1.3"/>
				<rect x="46.7" y="33.1" class="st5" width="2.8" height="1.3"/>
				<rect x="46.7" y="33.4" class="st5" width="2.8" height="1.3"/>
				<rect x="46.2" y="33.1" class="st5" width="2.8" height="1.3"/>
				<rect x="47.6" y="33.1" class="st5" width="2.8" height="1.3"/>
				<rect x="48.4" y="29.1" class="st5" width="2.8" height="4.5"/>
				<rect x="50.3" y="29.9" class="st5" width="2.8" height="4.5"/>
				<rect x="51.2" y="30.2" class="st5" width="2.8" height="4.5"/>
				<rect x="52" y="29.6" class="st5" width="2.8" height="4.5"/>
				<rect x="51.7" y="29.9" class="st5" width="2.8" height="4.5"/>
				<rect x="52" y="22.6" class="st5" width="2.8" height="8.2"/>
				<rect x="52" y="22.1" class="st7" width="2.8" height="1.1"/>
				<g>
					<polygon class="st9" points="53.4,22.6 53.3,22.6 51.2,22.6 49.3,22.6 47.2,22.6 47.2,29.3 47.2,33.5 49.3,33.5 49.3,29.3 
						51.2,29.3 51.2,33.5 53.3,33.5 53.3,29.3 53.4,29.3 					"/>
					<rect x="47" y="31.6" class="st10" width="2.5" height="2"/>
					<rect x="51.2" y="29.2" class="st11" width="2.5" height="2.5"/>
					<rect x="47" y="29.3" class="st11" width="2.5" height="2.4"/>
					<rect x="51.2" y="31.6" class="st10" width="2.5" height="2"/>
					<polygon class="st4" points="54,23 53.7,23 53.7,22.7 53.4,22.7 53.4,22.4 52.9,22.4 52.9,22.1 47.7,22.1 47.7,22.4 47.1,22.4 
						47.1,22.7 46.9,22.7 46.9,23 46.6,23 46.6,33.3 46.9,33.3 46.9,33.9 49.6,33.9 49.6,33.6 49.7,33.6 49.7,29.6 50.9,29.6 
						50.9,29.1 49.5,29.1 49.5,29.6 49.1,29.6 49.1,33.2 47.3,33.2 47.3,23.5 47.6,23.5 47.6,23.2 47.9,23.2 47.9,22.9 52.7,22.9 
						52.7,23.2 52.9,23.2 52.9,23.5 53.2,23.5 53.2,33.1 53.2,33.2 51.4,33.2 51.4,29.6 50.9,29.6 50.9,33.6 51.1,33.6 51.1,33.9 
						53.7,33.9 53.7,33.6 53.7,33.3 54,33.3 					"/>
					<rect x="49.5" y="25.3" class="st12" width="1.3" height="1.3"/>
				</g>
			</g>
			<g>
				<g>
					<g>
						<rect x="28.5" y="23.7" class="st5" width="1.1" height="10.1"/>
						<rect x="28.7" y="24" class="st5" width="1.1" height="10.1"/>
						<rect x="29" y="24.6" class="st5" width="7.1" height="10.1"/>
						<rect x="29.3" y="24.3" class="st5" width="7.1" height="10.1"/>
						<rect x="29.6" y="24" class="st5" width="7.1" height="10.1"/>
						<rect x="29.8" y="23.7" class="st5" width="7.1" height="10.1"/>
						<rect x="30.1" y="23.5" class="st5" width="7.1" height="10.1"/>
						<rect x="30.4" y="23.2" class="st5" width="7.1" height="10.1"/>
						<rect x="28.5" y="22.9" class="st5" width="9" height="10.1"/>
						<rect x="36.8" y="22.2" class="st7" width="0.7" height="0.7"/>
						<rect x="36.5" y="21.9" class="st7" width="0.7" height="0.7"/>
						<rect x="36" y="21.7" class="st7" width="0.7" height="0.7"/>
						<rect x="35.7" y="21.1" class="st7" width="0.7" height="0.7"/>
						<rect x="28.5" y="22.2" class="st7" width="0.7" height="0.7"/>
						<rect x="28.5" y="21.9" class="st7" width="0.7" height="0.7"/>
						<rect x="28.5" y="22.2" class="st7" width="0.7" height="0.7"/>
						<rect x="28.5" y="21.4" class="st7" width="0.7" height="0.7"/>
						<rect x="36.3" y="21.7" class="st7" width="0.7" height="0.7"/>
						<rect x="28.5" y="21.1" class="st8" width="7.5" height="1.2"/>
						<rect x="35.5" y="21" class="st7" width="0.7" height="0.7"/>
						<g>
							<polygon class="st9" points="36.5,22.9 35.5,22.9 35.5,22.5 29.7,22.5 29.7,33.5 35.5,33.5 35.5,32.8 36.5,32.8 							"/>
							<rect x="29.7" y="29.6" class="st11" width="6.5" height="3.7"/>
							<rect x="29.7" y="31.6" class="st10" width="6.5" height="1.6"/>
							<rect x="32.1" y="25" class="st13" width="1.5" height="1.5"/>
							<rect x="32.4" y="25.3" class="st12" width="1.1" height="1.1"/>
							<rect x="32.1" y="29.3" class="st13" width="1.5" height="1.5"/>
							<rect x="32.4" y="29.6" class="st12" width="1.1" height="1.1"/>
							<path class="st14" d="M36.8,23.4h-0.1v-0.5h-0.6v-0.3h-0.3v-0.5h-6h-0.3h-0.3v11.5h0.3v0.1h6.1v-0.2H36V33h0.3v-0.3h0.6V23.4
								z M35.6,22.9v0.3h0.6v0.3h0.1v9h-0.6V33h-0.3v0.1h-5.5V22.9H35.6z"/>
						</g>
					</g>
					<g>
						<rect x="20.3" y="23.7" class="st5" width="1.1" height="10.1"/>
						<rect x="20.6" y="24" class="st5" width="1.1" height="10.1"/>
						<rect x="20.9" y="24.6" class="st5" width="7.1" height="10.1"/>
						<rect x="21.1" y="24.3" class="st5" width="7.1" height="10.1"/>
						<rect x="21.4" y="24" class="st5" width="7.1" height="10.1"/>
						<rect x="21.7" y="23.7" class="st5" width="7.1" height="10.1"/>
						<rect x="22" y="23.5" class="st5" width="7.1" height="10.1"/>
						<rect x="22.2" y="23.2" class="st5" width="7.1" height="10.1"/>
						<rect x="20.3" y="22.9" class="st5" width="9" height="10.1"/>
						<rect x="28.7" y="22.2" class="st7" width="0.7" height="0.7"/>
						<rect x="28.4" y="21.9" class="st7" width="0.7" height="0.7"/>
						<rect x="27.9" y="21.7" class="st7" width="0.7" height="0.7"/>
						<rect x="27.6" y="21.1" class="st7" width="0.7" height="0.7"/>
						<rect x="20.4" y="22.2" class="st7" width="0.7" height="0.7"/>
						<rect x="20.4" y="21.9" class="st7" width="0.7" height="0.7"/>
						<rect x="20.4" y="22.2" class="st7" width="0.7" height="0.7"/>
						<rect x="20.4" y="21.4" class="st7" width="0.7" height="0.7"/>
						<rect x="28.1" y="21.7" class="st7" width="0.7" height="0.7"/>
						<rect x="20.3" y="21.1" class="st8" width="7.5" height="1.2"/>
						<rect x="27.4" y="21" class="st7" width="0.7" height="0.7"/>
						<g>
							<polygon class="st9" points="28.3,22.9 27.3,22.9 27.3,22.5 21.6,22.5 21.6,33.5 27.3,33.5 27.3,32.8 28.3,32.8 							"/>
							<rect x="21.5" y="29.6" class="st11" width="6.5" height="3.7"/>
							<rect x="21.5" y="31.6" class="st10" width="6.5" height="1.6"/>
							<rect x="23.9" y="25" class="st13" width="1.5" height="5.9"/>
							<rect x="24.2" y="25.3" class="st12" width="1.1" height="5.4"/>
							<rect x="24.2" y="29.6" class="st12" width="1.1" height="1.1"/>
							<path class="st14" d="M28.7,23.4h-0.1v-0.5H28v-0.3h-0.3v-0.5h-6h-0.3h-0.3v11.5h0.3v0.1h6.1v-0.2h0.3V33h0.3v-0.3h0.6V23.4z
								 M27.4,22.9v0.3H28v0.3h0.1v9h-0.6V33h-0.3v0.1h-5.5V22.9H27.4z"/>
						</g>
					</g>
					<path class="st14" d="M28.2,23.4v-0.5h-0.6v-0.3h-0.3v-0.5h-2.8v0l-2.7,0v0.5h-0.3v0.3H21v0.5h-0.1v9.3h0.6V33h0.3v0.6H22v0.2
						l2.6,0v0h2.5v-0.2h0.3V33h0.3v-0.3h0.6v-9.3H28.2z M27.7,32.4h-0.6V33h-0.3v0.1h-2.2V33h0v0.1h-0.2V33h0v0.1l-2.2,0V33H22v-0.6
						h-0.6v-9h0.1v-0.3h0.6v-0.3l2.4,0h0h0.2h0v0H27v0.3h0.6v0.3h0.1V32.4z"/>
					<g>
						<rect x="37.5" y="23.7" class="st5" width="1.1" height="10.1"/>
						<rect x="37.8" y="24" class="st5" width="1.1" height="10.1"/>
						<rect x="38.1" y="24.6" class="st5" width="7.1" height="10.1"/>
						<rect x="38.3" y="24.3" class="st5" width="7.1" height="10.1"/>
						<rect x="38.6" y="24" class="st5" width="7.1" height="10.1"/>
						<rect x="38.9" y="23.7" class="st5" width="7.1" height="10.1"/>
						<rect x="39.2" y="23.5" class="st5" width="7.1" height="10.1"/>
						<rect x="39.4" y="23.2" class="st5" width="7.1" height="10.1"/>
						<rect x="37.5" y="22.9" class="st5" width="9" height="10.1"/>
						<rect x="45.9" y="22.2" class="st7" width="0.7" height="0.7"/>
						<rect x="45.6" y="21.9" class="st7" width="0.7" height="0.7"/>
						<rect x="45" y="21.7" class="st7" width="0.7" height="0.7"/>
						<rect x="44.8" y="21.1" class="st7" width="0.7" height="0.7"/>
						<rect x="37.6" y="22.2" class="st7" width="0.7" height="0.7"/>
						<rect x="37.6" y="21.9" class="st7" width="0.7" height="0.7"/>
						<rect x="37.6" y="22.2" class="st7" width="0.7" height="0.7"/>
						<rect x="37.6" y="21.4" class="st7" width="0.7" height="0.7"/>
						<rect x="45.3" y="21.7" class="st7" width="0.7" height="0.7"/>
						<rect x="37.5" y="21.1" class="st8" width="7.5" height="1.2"/>
						<g>
							<polygon class="st9" points="45.5,22.9 44.5,22.9 44.5,22.5 38.8,22.5 38.8,33.5 44.5,33.5 44.5,32.8 45.5,32.8 							"/>
							<rect x="38.7" y="29.6" class="st11" width="6.5" height="3.7"/>
							<rect x="38.7" y="31.6" class="st10" width="6.5" height="1.6"/>
							<rect x="41.1" y="25" class="st13" width="1.5" height="1.5"/>
							<rect x="41.4" y="25.3" class="st12" width="1.1" height="1.1"/>
							<rect x="41.1" y="29.3" class="st13" width="1.5" height="1.5"/>
							<rect x="41.4" y="29.6" class="st12" width="1.1" height="1.1"/>
							<path class="st14" d="M45.9,23.4h-0.1v-0.5h-0.6v-0.3h-0.3v-0.5h-6h-0.3h-0.3v11.5h0.3v0.1h6.1v-0.2H45V33h0.3v-0.3h0.6V23.4
								z M44.6,22.9v0.3h0.6v0.3h0.1v9h-0.6V33h-0.3v0.1h-5.5V22.9H44.6z"/>
						</g>
						<rect x="44.5" y="21" class="st7" width="0.7" height="0.7"/>
					</g>
					<g>
						<rect x="11.5" y="23.7" class="st5" width="1.1" height="10.1"/>
						<rect x="11.8" y="24" class="st5" width="1.1" height="10.1"/>
						<rect x="12.1" y="24.6" class="st5" width="7.1" height="10.1"/>
						<rect x="12.4" y="24.3" class="st5" width="7.1" height="10.1"/>
						<rect x="12.6" y="24" class="st5" width="7.1" height="10.1"/>
						<rect x="12.9" y="23.7" class="st5" width="7.1" height="10.1"/>
						<rect x="13.2" y="23.5" class="st5" width="7.1" height="10.1"/>
						<rect x="13.5" y="23.2" class="st5" width="7.1" height="10.1"/>
						<rect x="11.5" y="22.9" class="st5" width="9" height="10.1"/>
						<rect x="19.9" y="22.2" class="st7" width="0.7" height="0.7"/>
						<rect x="19.6" y="21.9" class="st7" width="0.7" height="0.7"/>
						<rect x="19.1" y="21.7" class="st7" width="0.7" height="0.7"/>
						<rect x="18.8" y="21.1" class="st7" width="0.7" height="0.7"/>
						<rect x="11.6" y="22.2" class="st7" width="0.7" height="0.7"/>
						<rect x="11.6" y="21.9" class="st7" width="0.7" height="0.7"/>
						<rect x="11.6" y="22.2" class="st7" width="0.7" height="0.7"/>
						<rect x="11.6" y="21.4" class="st7" width="0.7" height="0.7"/>
						<rect x="19.4" y="21.7" class="st7" width="0.7" height="0.7"/>
						<rect x="11.5" y="21.1" class="st8" width="7.5" height="1.2"/>
						<g>
							<polygon class="st9" points="19.6,22.9 18.5,22.9 18.5,22.5 12.8,22.5 12.8,33.5 18.5,33.5 18.5,32.8 19.6,32.8 							"/>
							<rect x="12.7" y="29.6" class="st11" width="6.5" height="3.7"/>
							<rect x="12.7" y="31.6" class="st10" width="6.5" height="1.6"/>
							<rect x="15.2" y="25" class="st13" width="1.5" height="1.5"/>
							<rect x="15.4" y="25.3" class="st12" width="1.1" height="1.1"/>
							<rect x="15.2" y="29.3" class="st13" width="1.5" height="1.5"/>
							<rect x="15.4" y="29.6" class="st12" width="1.1" height="1.1"/>
							<path class="st14" d="M19.9,23.4h-0.1v-0.5h-0.6v-0.3h-0.3v-0.5h-6h-0.3h-0.3v11.5h0.3v0.1h6.1v-0.2h0.3V33h0.3v-0.3h0.6
								V23.4z M18.6,22.9v0.3h0.6v0.3h0.1v9h-0.6V33h-0.3v0.1H13V22.9H18.6z"/>
						</g>
						<rect x="18.6" y="21" class="st7" width="0.7" height="0.7"/>
					</g>
				</g>
				<rect x="20.5" y="21.8" class="st7" width="0.7" height="0.7"/>
				<rect x="20.8" y="21.3" class="st7" width="0.7" height="0.7"/>
			</g>
		</g>
		<rect x="19.6" y="48.2" class="st7" width="27.3" height="0.6"/>
		<rect x="19.6" y="47.6" class="st1" width="27.3" height="0.6"/>
		<rect x="19.6" y="48.7" class="st1" width="27.3" height="0.6"/>
		<g>
			<rect x="29" y="33.9" class="st5" width="6.6" height="1.2"/>
			<rect x="28.2" y="34.5" class="st7" width="1.2" height="1.2"/>
			<rect x="28.7" y="33.9" class="st7" width="1.2" height="1.2"/>
			<rect x="28.2" y="45.6" class="st5" width="0.8" height="1.3"/>
			<rect x="28.5" y="45.9" class="st5" width="0.8" height="1.3"/>
			<rect x="28.7" y="46.1" class="st5" width="2.8" height="1.3"/>
			<rect x="28.7" y="46.4" class="st5" width="2.8" height="1.3"/>
			<rect x="28.2" y="46.1" class="st5" width="2.8" height="1.3"/>
			<rect x="29.6" y="46.1" class="st5" width="2.8" height="1.3"/>
			<rect x="30.4" y="42.1" class="st5" width="2.8" height="4.5"/>
			<rect x="32.3" y="42.9" class="st5" width="2.8" height="4.5"/>
			<rect x="33.1" y="43.2" class="st5" width="2.8" height="4.5"/>
			<rect x="34" y="42.6" class="st5" width="2.8" height="4.5"/>
			<rect x="33.7" y="42.9" class="st5" width="2.8" height="4.5"/>
			<rect x="34" y="35.6" class="st5" width="2.8" height="8.2"/>
			<rect x="34" y="35.1" class="st7" width="2.8" height="1.1"/>
			<g>
				<polygon class="st9" points="35.4,35.6 35.3,35.6 33.2,35.6 31.2,35.6 29.2,35.6 29.2,42.4 29.2,46.5 31.2,46.5 31.2,42.4 
					33.2,42.4 33.2,46.5 35.3,46.5 35.3,42.4 35.4,42.4 				"/>
				<rect x="29" y="44.7" class="st10" width="2.5" height="2"/>
				<rect x="33.2" y="42.3" class="st11" width="2.5" height="2.5"/>
				<rect x="29" y="42.4" class="st11" width="2.5" height="2.4"/>
				<rect x="33.2" y="44.7" class="st10" width="2.5" height="2"/>
				<polygon class="st4" points="36,36 35.7,36 35.7,35.7 35.4,35.7 35.4,35.4 34.9,35.4 34.9,35.1 29.7,35.1 29.7,35.4 29.1,35.4 
					29.1,35.7 28.8,35.7 28.8,36 28.5,36 28.5,46.3 28.9,46.3 28.9,46.9 31.5,46.9 31.5,46.6 31.6,46.6 31.6,42.6 32.9,42.6 
					32.9,42.1 31.5,42.1 31.5,42.6 31.1,42.6 31.1,46.2 29.3,46.2 29.3,36.5 29.6,36.5 29.6,36.2 29.9,36.2 29.9,35.9 34.7,35.9 
					34.7,36.2 34.9,36.2 34.9,36.5 35.2,36.5 35.2,46.1 35.2,46.2 33.4,46.2 33.4,42.6 32.9,42.6 32.9,46.6 33.1,46.6 33.1,46.9 
					35.7,46.9 35.7,46.6 35.7,46.3 36,46.3 				"/>
				<rect x="31.5" y="38.3" class="st12" width="1.3" height="1.3"/>
			</g>
		</g>
		<rect x="11.5" y="34.9" class="st7" width="1.2" height="6.3"/>
		<rect x="11.5" y="43.2" class="st7" width="1.1" height="4.1"/>
		<rect x="11.8" y="40.8" class="st5" width="0.8" height="0.8"/>
		<rect x="12.1" y="41.1" class="st5" width="0.8" height="0.8"/>
		<rect x="12.4" y="41.3" class="st5" width="0.8" height="0.8"/>
		<rect x="11.5" y="40.8" class="st5" width="0.8" height="0.8"/>
		<rect x="11.8" y="41.1" class="st5" width="0.8" height="0.8"/>
		<rect x="12.1" y="41.3" class="st5" width="0.8" height="0.8"/>
		<rect x="12.4" y="41.6" class="st5" width="0.8" height="0.8"/>
		<rect x="12.6" y="41.9" class="st5" width="0.8" height="0.8"/>
		<rect x="13.2" y="41.7" class="st5" width="3.3" height="0.9"/>
		<rect x="12.2" y="46.2" class="st5" width="4.9" height="1.1"/>
		<rect x="14.9" y="46.2" class="st5" width="4.9" height="1.4"/>
		<rect x="15.2" y="45.9" class="st5" width="4.9" height="1.4"/>
		<rect x="15.5" y="45.6" class="st5" width="4.9" height="1.4"/>
		<rect x="15.5" y="45.3" class="st5" width="4.9" height="1.4"/>
		<polygon class="st10" points="19.7,39.4 19.7,39.1 19.4,39.1 19.4,38.8 19.1,38.8 19.1,38.6 18.6,38.6 16.8,38.6 16.2,38.6 
			16.2,41.8 16.5,41.8 16.5,42.1 16.8,42.1 16.8,42.4 17.3,42.4 17.6,42.4 17.6,42.7 20,42.7 20,39.4 		"/>
		<rect x="12.5" y="34.7" class="st5" width="7.6" height="11.2"/>
		<rect x="15.5" y="45.1" class="st5" width="4.9" height="1.4"/>
		<rect x="15.5" y="44.8" class="st5" width="4.9" height="1.4"/>
		<rect x="11.8" y="42.9" class="st10" width="6.8" height="0.3"/>
		<rect x="15.1" y="38.6" class="st10" width="2.4" height="3.3"/>
		<polygon class="st15" points="19.5,37.6 19.5,35.4 12.6,35.4 12.6,36 12.3,36 12.3,40.9 12.9,40.9 12.9,40.9 12.9,41.1 13.2,41.1 
			13.2,41.7 16.2,41.7 16.2,43.2 13.2,43.2 12.6,43.2 12.1,43.2 12.1,46.2 18.2,46.2 18.2,46.1 18.5,46.1 18.5,45.8 18.8,45.8 
			18.8,45.5 19.1,45.5 19.1,45.2 19.3,45.2 19.5,45.2 19.5,40.3 19.3,40.3 19.3,40 19.1,40 19.1,39.8 18.8,39.8 18.8,39.5 
			18.5,39.5 18.5,39.2 18.2,39.2 18.2,38.9 15.2,38.9 15.2,37.6 		"/>
		<rect x="12.3" y="44.2" class="st10" width="6" height="2"/>
		<rect x="12.9" y="44.2" class="st10" width="6" height="1.4"/>
		<rect x="12.5" y="43.1" class="st11" width="6.9" height="1.7"/>
		<rect x="16.2" y="41.8" class="st11" width="3.2" height="3"/>
		<rect x="12.5" y="44.2" class="st10" width="6.9" height="1.7"/>
		<g>
			<polygon class="st9" points="22.5,46.3 22.5,37.9 20.4,37.9 20.4,35.3 28,35.3 28,37.9 25.7,37.9 25.7,46.3 			"/>
			<path class="st14" d="M27.9,35.4v2.3h-2.3v8.4h-2.9v-8.4h-2.1v-2.3h2.1h2.9H27.9 M28.1,35.2h-0.3h-2.3h-2.9h-2.1h-0.3v0.3v2.3V38
				h0.3h1.8v8.1v0.3h0.3h2.9h0.3v-0.3V38h2h0.3v-0.3v-2.3V35.2L28.1,35.2z"/>
		</g>
		<rect x="22.6" y="42" class="st11" width="2.9" height="2.9"/>
		<rect x="22.6" y="44.2" class="st10" width="2.9" height="2"/>
		<rect x="36.7" y="34.8" class="st5" width="5.1" height="13"/>
		<rect x="36.7" y="34.5" class="st5" width="9" height="9"/>
		<rect x="40.5" y="38.8" class="st5" width="5" height="0.7"/>
		<rect x="40.5" y="34.8" class="st7" width="5" height="0.7"/>
		<g>
			<polygon class="st9" points="37.4,46.9 37.4,35.7 37.5,35.6 45,35.6 45,38.9 40.9,38.9 40.9,39.5 45,39.5 45,42.8 40.9,42.8 
				40.9,46.9 			"/>
			<path class="st14" d="M44.9,35.7v3.1h-4.1v0.8h4.1v3.1h-4.1v4.1h-3.2v-4.1v-3.1v-0.8v-3v-0.1H44.9 M45.2,35.4h-0.3h-7.4h-0.3v0.3
				v0.1v3v0.8v3.1v4.1v0.3h0.3h3.2H41v-0.3v-3.8h3.9h0.3v-0.3v-3.1v-0.3h-0.3H41V39h3.9h0.3v-0.3v-3.1V35.4L45.2,35.4z"/>
		</g>
		<rect x="45.3" y="35.1" class="st5" width="5.1" height="13"/>
		<rect x="45.3" y="34.5" class="st5" width="9" height="9"/>
		<rect x="49.1" y="35.1" class="st7" width="5" height="0.7"/>
		<g>
			<polygon class="st9" points="45.9,46.9 45.9,35.7 46.1,35.6 53.6,35.6 53.6,38.9 49.4,38.9 49.4,39.5 53.6,39.5 53.6,42.8 
				49.4,42.8 49.4,46.9 			"/>
			<path class="st14" d="M53.5,35.7v3.1h-4.1v0.8h4.1v3.1h-4.1v4.1h-3.2v-4.1v-3.1v-0.8v-3v-0.1H53.5 M53.7,35.4h-0.3h-7.4h-0.3v0.3
				v0.1v3v0.8v3.1v4.1v0.3h0.3h3.2h0.3v-0.3v-3.8h3.9h0.3v-0.3v-3.1v-0.3h-0.3h-3.9V39h3.9h0.3v-0.3v-3.1V35.4L53.7,35.4z"/>
		</g>
		<rect x="37.7" y="42.7" class="st11" width="2.9" height="2"/>
		<rect x="37.7" y="44.7" class="st10" width="2.9" height="2"/>
		<rect x="46.2" y="42.7" class="st11" width="2.9" height="2"/>
		<rect x="46.2" y="44.7" class="st10" width="2.9" height="2"/>
		<rect x="49.1" y="39.1" class="st5" width="5" height="0.4"/>
		<rect x="40.2" y="39.1" class="st5" width="5" height="0.4"/>
	</g>
</g>
</svg>
