<?xml version="1.0" encoding="utf-8"?>
<!-- Generator: Adobe Illustrator 21.0.2, SVG Export Plug-In . SVG Version: 6.00 Build 0)  -->
<svg version="1.1" id="Livello_1" xmlns="http://www.w3.org/2000/svg" xmlns:xlink="http://www.w3.org/1999/xlink" x="0px" y="0px"
	 viewBox="0 0 62.7 52.1" style="enable-background:new 0 0 62.7 52.1;" xml:space="preserve">
<style type="text/css">
	.st0{fill:#F0F0EA;}
	.st1{fill:#E12D23;}
	.st2{fill:#DB6E6B;}
	.st3{fill:#8B0100;}
	.st4{fill:#BC0D0D;}
	.st5{fill:#BCCFC9;}
	.st6{fill:#96A6A1;}
	.st7{fill:#B65A00;}
	.st8{fill:#FF9900;}
	.st9{fill:#993300;}
	.st10{fill:#FFCC33;}
	.st11{fill:#FFFFFF;}
	.st12{fill:#2282AF;}
	.st13{fill:#CC6600;}
</style>
<rect x="7" y="7" width="2.4" height="11.5"/>
<rect x="12" y="2" transform="matrix(-1.836970e-16 1 -1 -1.836970e-16 20.9899 -5.4152)" width="2.4" height="11.5"/>
<rect x="13.3" y="2.2" transform="matrix(-1 -1.224647e-16 1.224647e-16 -1 29.0224 15.8043)" width="2.4" height="11.5"/>
<rect x="21.1" y="1.5" transform="matrix(-1 -1.224647e-16 1.224647e-16 -1 45.2373 14.6275)" width="3" height="11.6"/>
<rect x="20.6" y="5.3" transform="matrix(-1 -1.224647e-16 1.224647e-16 -1 44.6152 13.8722)" width="3.3" height="3.3"/>
<rect x="13.6" y="1.3" transform="matrix(-1 -1.224647e-16 1.224647e-16 -1 36.2244 5.8722)" width="9" height="3.3"/>
<g>
	<rect x="49.8" y="8.9" width="9.5" height="1.6"/>
	<rect x="43.5" y="5.8" transform="matrix(6.123234e-17 -1 1 6.123234e-17 41.6495 54.823)" width="9.5" height="1.6"/>
	<rect x="47.1" y="10.2" width="4.2" height="1.6"/>
	<rect x="35" width="13.7" height="2.4"/>
	<rect x="31.1" y="4.2" transform="matrix(6.123234e-17 -1 1 6.123234e-17 29.8553 40.7357)" width="8.5" height="2.4"/>
	<rect x="58.2" y="9.7" width="1.8" height="14.2"/>
	<g>
		<path class="st0" d="M50.2,17.3l-11.2-2.4c0,0-12-0.1-13.4,0C24.3,15,12,17.3,12,17.3l-6.6,6.2l-3.7,7.7l1.4,9.2l7.8,7.1l7,3.5
			h14.2l16.6-1c0,0,5.8-4.2,5.9-4.5c0.1-0.3,5.4-6.2,5.4-6.2V26.9L50.2,17.3z"/>
		<g>
			<polygon class="st1" points="25.7,20.4 26.7,20.4 26.7,29.6 36.2,29.6 36.2,20.4 37.8,20.4 37.8,17.8 38.4,17.8 38.4,14.9 
				37.8,14.9 36.2,14.9 26.7,14.9 25.7,14.9 24.8,14.9 24.8,17.8 25.7,17.8 			"/>
			<polygon class="st1" points="53.8,22.2 47,22.2 47,23 45.4,23 43.8,25.4 41.9,28.1 42.8,28.5 48.1,28.8 49.2,29.8 50.2,29.6 
				51.2,30.9 52.4,30.7 53.5,31.9 54.6,32.9 54.6,33.7 55.7,35.3 58.3,36.5 60.3,31.2 57.3,25.5 			"/>
			<polygon class="st1" points="25.4,32.8 25.2,31.8 24.1,31.8 23.4,32.9 23.1,34 22.2,34.9 22.2,35.4 21.1,37.2 21.1,47 24.1,47 
				25.5,46 26.4,45.9 28.5,43.9 30.7,41.6 31.9,41.6 32.9,42.7 32.8,43.9 34,43.7 35.2,44.7 35.9,45.9 37.3,45.9 38,47 41.9,47.4 
				41.9,37.1 38.6,32.2 			"/>
			<polygon class="st1" points="17.8,24.2 16.7,23.1 15.4,23.1 14.5,22.2 7.9,22.2 4.5,27.6 4.7,28.7 5.7,29.6 5.7,30.9 4.8,31.8 
				4.1,36.7 5.9,38.3 6.8,38.3 7,35 8.1,34 8.3,32.9 9.1,31.8 10.2,30.7 11.4,30.7 12.2,29.9 13.5,29.6 14.7,28.6 19.9,28.5 
				19.9,26.4 18.8,25.2 			"/>
		</g>
		<rect x="48.4" y="22.2" class="st2" width="2.7" height="7.4"/>
		<rect x="47" y="22.2" class="st2" width="4.1" height="2.7"/>
		<rect x="21.9" y="36.5" class="st2" width="19.4" height="1.8"/>
		<rect x="25.1" y="17.3" class="st2" width="12.6" height="1.6"/>
		
			<rect x="10.3" y="22.2" transform="matrix(-1 -4.465729e-11 4.465729e-11 -1 23.1889 51.8388)" class="st2" width="2.7" height="7.4"/>
		
			<rect x="10.3" y="22.2" transform="matrix(-1 -4.424695e-11 4.424695e-11 -1 24.6116 47.1558)" class="st2" width="4.1" height="2.7"/>
		<rect x="27.4" y="26" class="st3" width="7.9" height="3.1"/>
		<rect x="27.4" y="22.8" class="st4" width="7.9" height="3.7"/>
		<rect x="21.9" y="22.6" class="st5" width="4.9" height="3.4"/>
		<rect x="36.4" y="22.6" class="st5" width="4.9" height="3.4"/>
		<rect x="37.9" y="23" class="st5" width="4.9" height="3.4"/>
		<rect x="19.8" y="24.7" class="st5" width="4.9" height="3.4"/>
		<rect x="20.8" y="26.9" class="st6" width="5.9" height="3.4"/>
		<rect x="36.4" y="26.4" class="st6" width="5.4" height="3.7"/>
		<rect x="25.1" y="29.6" class="st6" width="12.8" height="3.3"/>
		<rect x="37.9" y="29.1" class="st6" width="5.4" height="3.7"/>
		<rect x="7" y="34.7" class="st5" width="3.8" height="5.2"/>
		<rect x="10.3" y="35.8" class="st5" width="3.8" height="4.2"/>
		<rect x="13.5" y="36.8" class="st5" width="3.8" height="4.2"/>
		<rect x="13.5" y="37.9" class="st5" width="3.8" height="4.2"/>
		<rect x="14.6" y="39" class="st5" width="6.3" height="5.4"/>
		<rect x="16.1" y="39" class="st5" width="4.8" height="6.4"/>
		<rect x="41.9" y="38.3" class="st5" width="3" height="8.4"/>
		<rect x="42.9" y="37.2" class="st5" width="3" height="8.4"/>
		<rect x="46.2" y="34.4" class="st5" width="8.8" height="4.7"/>
		<rect x="44" y="35.8" class="st5" width="4.4" height="4.1"/>
		<rect x="17.7" y="39" class="st5" width="3.1" height="7.3"/>
		<rect x="20.8" y="42.5" class="st3" width="5.9" height="3.8"/>
		<rect x="21.9" y="41.4" class="st3" width="5.9" height="3.8"/>
		<rect x="34.9" y="41.4" class="st3" width="5.9" height="3.8"/>
		<rect x="36" y="42.5" class="st3" width="5.9" height="3.8"/>
		<rect x="32.7" y="40.9" class="st3" width="5.9" height="2.1"/>
		<rect x="24.1" y="40.9" class="st3" width="5.9" height="2.1"/>
		<rect x="54.7" y="24.6" class="st3" width="4.1" height="11.2"/>
		<rect x="5.4" y="24.7" class="st3" width="2.2" height="13.2"/>
		<rect x="3.2" y="37.4" class="st7" width="4.3" height="4.3"/>
		<rect x="46.3" y="39.9" class="st7" width="4.3" height="7.7"/>
		<rect x="49.5" y="39.9" class="st7" width="4.3" height="7.7"/>
		<rect x="49.5" y="39.9" class="st7" width="9.1" height="3.8"/>
		<rect x="54.9" y="36.7" class="st7" width="6.9" height="3.8"/>
		<rect x="32.3" y="45.3" class="st7" width="5.6" height="5"/>
		<rect x="24.7" y="45.3" class="st7" width="5.6" height="5"/>
		<rect x="7.6" y="40.6" class="st7" width="4.3" height="4.3"/>
		<rect x="10.8" y="42.8" class="st7" width="4.3" height="4.3"/>
		<rect x="14" y="46" class="st7" width="4.3" height="4.3"/>
		<rect x="16.2" y="47.1" class="st7" width="33.5" height="4.3"/>
		<g>
			<rect x="46.5" y="39.9" width="1.1" height="1.1"/>
			<rect x="5.4" y="29.1" width="1.1" height="2.1"/>
			<polygon points="10.7,41 10.7,41 10.7,39.9 9.6,39.9 8.6,39.9 7.6,39.9 7.6,41 8.6,41 9.5,41 9.5,42.1 10.7,42.1 			"/>
			<rect x="9.8" y="30.1" width="2.1" height="1.1"/>
			<rect x="11.9" y="29.1" width="2.1" height="1.1"/>
			<polygon points="20.5,28 20.5,25.8 19.4,25.8 19.4,24.7 18.3,24.7 18.3,23.7 17.3,23.7 17.3,22.6 15.2,22.6 15.2,23.7 17.2,23.7 
				17.2,24.8 18.3,24.8 18.3,25.8 19.4,25.8 19.4,28 14.1,28 14.1,29.1 19.4,29.1 20.5,29.1 20.5,30.2 21.6,30.2 21.6,29.1 
				20.5,29.1 			"/>
			<rect x="8.6" y="31.2" width="1" height="1"/>
			<rect x="7.6" y="32.3" width="1.1" height="2.2"/>
			<polygon points="6.5,38.8 6.5,39.9 7.6,39.9 7.6,38.8 7.6,37.7 7.6,34.4 6.5,34.4 6.5,37.7 5.4,37.7 5.4,38.8 			"/>
			<polygon points="40.1,31.2 40.1,30.2 39,30.2 38.9,30.2 37.9,30.2 37.9,29.1 37.8,29.1 36.8,29.1 36.8,20.6 37.9,20.6 37.9,19.5 
				37.9,19.4 37.9,18.4 39,18.4 39,17.3 37.8,17.3 36.7,17.3 36.7,18.4 35.6,18.4 35.6,19.4 35.6,19.5 35.6,20.5 34.5,20.5 
				34.5,29.1 28.2,29.1 28.2,20.5 27.1,20.5 27.1,19.5 27.1,19.4 27.1,18.4 26,18.4 26,17.3 24.9,17.3 23.7,17.3 23.7,18.4 
				24.8,18.4 24.8,19.4 24.8,19.5 24.8,20.6 25.9,20.6 25.9,29.1 24.9,29.1 24.8,29.1 24.8,30.2 23.8,30.2 23.7,30.2 22.6,30.2 
				22.6,31.2 23.7,31.2 23.7,32.2 24.8,32.2 24.8,31.2 24.9,31.2 24.9,32.2 25.9,32.2 25.9,30.2 26,30.2 27,30.2 28.2,30.2 
				34.5,30.2 35.7,30.2 36.7,30.2 36.7,30.2 36.7,32.2 37.8,32.2 37.8,31.2 37.9,31.2 37.9,32.2 39,32.2 39,31.2 			"/>
			<polygon points="25.9,32.4 24.8,32.4 24.8,33.4 25.9,33.4 36.7,33.4 37.9,33.4 37.9,32.4 36.7,32.4 			"/>
			<rect x="48.7" y="29.1" width="1" height="1.1"/>
		</g>
	</g>
	<path d="M61.6,27.1V26v-0.2v-0.9v-1.3h-2.2v-0.9v-0.2h-1.1v-0.9v-0.2h-1.1v-0.9v-0.2v-1.1h-1.1v-0.9v-0.2h-1.1v-0.9v-0.2h-2.2v-0.9
		v-0.2h-2.2v-0.9V15h-1.1V14h-4.3v-0.9h0v-0.2h-4.3v-1H40H22.7h-1.1v1h-4.3v0.2h0V14H13V15h-1.1v0.2v0.9H9.7v0.2v0.9H7.6v0.2v0.9
		H6.5v0.2v0.9H5.4v1.1v0.2v0.9H4.3v0.2v0.9H3.2v0.2v0.9H1.1v1.3v0.9V26v1.1H0v2v2.1v1v1.1v7.5h2.2v2.2h1.1v2.2h1.1v1.1h1.1h1.1v1.1
		h1.1h1.1v1.1h1.1h1.1v1.1h1.1v1.1H13v1.1H14v0.3h10.7v-1h0.1v1h13v-1h0.1v1h10.7v-0.3h1.1v-1.1h1.1v-1.1h1.1v-1.1h1.1H54v-1.1h1.1
		h1.1v-1.1h1.1h1.1v-1.1h1.1v-2.2h1.1v-2.2h2.2v-7.5v-1.1v-1v-2.1v-2H61.6z M14,46.4h-1v-0.9h1V46.4z M15,47.5h-1v-0.9h1V47.5z
		 M16.1,48.5h-1v-0.9h1V48.5z M16.1,46.5h-1v-1h1V46.5z M18.3,47.6h-1h-1.1v-1h1h0.1h1V47.6z M28.1,46.3h-1v-1h1V46.3z M30.2,47.4
		h-2.1v-1h1h1.1V47.4z M28.1,45.2v-1h1v1H28.1z M32.4,45.2v1.1h-1h0h-1v-1.1v-3.2h1h0h1V45.2z M34.6,47.4h-2.1v-1h1.1h1V47.4z
		 M34.6,45.2h-1v-1h1V45.2z M35.6,46.3h-1v-1h1V46.3z M44.3,48.5h-1.1v-0.9h1.1V48.5z M46.5,47.6h-1v-1h0h1V47.6z M47.5,48.5h-1
		v-0.9h1V48.5z M47.5,46.5h-1v-1h1V46.5z M48.6,47.5h-1v-0.9h1V47.5z M49.7,46.4h-1v-0.9h1V46.4z M56.2,41h-1.1v1v0.1h-2v1h-0.2
		h-2.2v-1V41h-0.9v-1h2v-0.1H52V41V41v1.1h1.1V41H54h1.1v-1.1h1.1V41z M57.3,39.9h-1.1v-1.1h1.1V39.9z M58.3,29.1v1.1h-1v-1.1h-1.1
		v2.1h1.1v0v1.1v3.2h-1.1v-1.1h-1v-2.2h0v0h-1v-1.1H53v-1.1h-1.1v0h-1.1V29h-1.1v0v1.1v1.1h1v0h1.1v1.1H53v1.1v1.1h1.1v1.1h0v2.7
		v0.5h-6.5v1.1h1.2V41V41v1h-1.1v1.1h1.1v-1.1h0.9v1v1.1v0.1h-1.1v1.1h-1v-1.1h-1.2v-3.4h-1.1v4.3h-2.1v1.1h-1v-9.8h-1.1v-2.2h-1.1
		v-2.2H39v2.3h1.1v2.2h1.1v9.7h-3.2v1.1h3.2h1v1.1h-4.4v-1.1h-1.1h-1v-1h2.2v-1.1h-2.2v-1.1h-1.1v-1.1h-1.1v-1h-1.1v-1.1h-1.1h0
		h-1.1v1.1h-1.1v1h-1.1v1.1H27v1.1h-2.2v1.1H27v1h-1h-1.1v1.1h-6.5v-0.9h1.1v-0.2h1h1.1h3.2v-1.1h-3.2v-9.7h1.1v-2.2h1.1v-2.3h-1.1
		v2.2h-1.1v2.2h-1.1v9.8h-2.1v-0.9h-1.1h-0.1h-1v-1.1H15v1.1h-1v-1.1H13v-0.1v-1.1v-1h0.9v1.1H15v-1.1h-1.1v-1V41v-1.1h-1.1v-1.1h-2
		V40h2v1h-0.9v1.1v1H9.7H9.5v-1h-2v-0.1v-1H6.5v0H5.4v0h0v-1.1h-1v-1.1v-1.1h1v-6.5h-1v-1.1v-1.1v0h1v-1h0v-1.1h1.1v-1.1h1.1v-1.1
		h1.1v-2.2h1.1v0h5.4v-1.1h-4.3v-1h1.1H13v-1.1H14h1.1v-1.1h2.2h1.1v-1.1h3.2h0.7h0.4h1.1h1V16h13v1.2h1H40h0.4h0.7h3.2v1.1h1.1h2.2
		v1.1h1.1h1.1v1.1h1.1h1.1v0.9h-5.4v1.2h-1h-1.1v1.1h0v0h-1.1v1.1h-1.1v0.9h-1.1v3.4h-1v1.1h1h1.1v-1.1h1.1h4.2v1.1h1.1V28h0h-1.1
		h-4.2v-2.1h1.1v-1.1h1.1v-1.1v0h2.1v-1.1h0.1h5.4v0H54v2.2h1.1v1.1h1.1v1.1h1.1V28h0v1L58.3,29.1L58.3,29.1z"/>
	<g>
		<g>
			<polygon class="st8" points="37.1,1.8 46,1.8 46,3 47.2,3 47.2,11.9 51,11.9 51,10.3 58.2,10.3 58.2,21.5 57,21.5 57,24 55.8,24 
				55.8,25.2 54.5,25.2 54.5,26.5 53.3,26.5 53.3,27.8 50.8,27.8 50.8,28.8 39.9,28.8 39.9,27.6 36.1,27.6 36.1,25 34.9,25 34.9,19 
				36.2,19 36.2,16.5 37.4,16.5 37.4,14.2 36.1,14.2 36.1,12.8 32.3,12.8 32.3,10.4 34.9,10.4 34.9,9.1 36.2,9.1 36.2,3 37.4,3 			
				"/>
			<rect x="40.4" y="27" class="st9" width="9.8" height="1.2"/>
			<rect x="42.9" y="25.8" class="st9" width="9.8" height="1.2"/>
			<rect x="46.6" y="24.6" class="st9" width="9.8" height="1.2"/>
			<rect x="51.5" y="23.3" class="st9" width="5.1" height="1.2"/>
			<rect x="53.9" y="22.1" class="st9" width="3.1" height="1.2"/>
			<rect x="55.2" y="20.9" class="st9" width="3.1" height="1.2"/>
			<rect x="56.4" y="10.7" class="st9" width="1.8" height="10.2"/>
			<rect x="36.7" y="19.7" class="st10" width="9.8" height="4.8"/>
			<rect x="38" y="18.4" class="st10" width="8.5" height="7.4"/>
			<rect x="39.3" y="17.3" class="st10" width="7.2" height="8.5"/>
			<rect x="39.3" y="17.3" class="st10" width="13.4" height="1.1"/>
			<rect x="46.5" y="16" class="st10" width="6.1" height="2.4"/>
			<rect x="47.8" y="16" class="st10" width="3.7" height="3.7"/>
			<rect x="50.2" y="14.7" class="st10" width="3.7" height="3.7"/>
			<rect x="51.5" y="13.5" class="st10" width="3.7" height="3.7"/>
			<rect x="52.7" y="12.3" class="st10" width="3.7" height="3.7"/>
			<rect x="44.1" y="4.9" class="st11" width="1.3" height="1.2"/>
			<rect x="53.9" y="16" class="st11" width="1.3" height="1.2"/>
			<rect x="52.7" y="17.2" class="st11" width="1.3" height="1.2"/>
			<rect x="37.9" y="3.7" class="st10" width="7.4" height="1.2"/>
			<rect x="36.8" y="6" class="st0" width="2.5" height="2.5"/>
			<rect x="36.8" y="7.2" class="st0" width="1.3" height="2.5"/>
			<rect x="42.9" y="7.2" class="st0" width="1.3" height="2.5"/>
			<rect x="41.7" y="7.2" class="st0" width="1.3" height="2.5"/>
			<rect x="41.7" y="6" class="st0" width="1.3" height="2.5"/>
			<rect x="40.5" y="6" class="st0" width="1.3" height="2.5"/>
			
				<rect x="41.7" y="7.2" transform="matrix(-1.836970e-16 1 -1 -1.836970e-16 50.792 -33.8304)" class="st0" width="1.3" height="2.5"/>
			<rect x="36.7" y="7.4" class="st12" width="1.2" height="1.2"/>
			<rect x="33.1" y="11.1" class="st13" width="9.9" height="1.2"/>
			<rect x="35.5" y="9.7" class="st9" width="8.7" height="2.5"/>
			<rect x="35.5" y="9.7" class="st9" width="7.5" height="3.8"/>
			<rect x="36" y="4.9" class="st9" width="3.2" height="1.3"/>
			<rect x="40.9" y="4.9" class="st9" width="3.2" height="1.3"/>
			<rect x="35.5" y="9.7" class="st9" width="6.2" height="4.9"/>
			<rect x="38" y="8.5" class="st9" width="3.6" height="2.5"/>
			<rect x="38" y="9.7" class="st13" width="3.6" height="2.5"/>
			<rect x="33.1" y="11.1" class="st13" width="9.8" height="1.2"/>
			<rect x="41.7" y="7.4" class="st12" width="1.2" height="1.2"/>
			<rect x="42.9" y="3.7" class="st11" width="1.3" height="1.2"/>
			<g>
				<rect x="45.4" y="2.5" width="2.4" height="1.2"/>
				<polygon points="46.6,3.7 46.6,11.1 46.6,12.3 47.8,12.3 51.5,12.3 51.5,11.1 47.8,11.1 47.8,3.7 				"/>
				<polygon points="57.6,9.9 50.3,9.9 50.3,11.1 57.6,11.1 57.6,22.1 58.8,22.1 58.8,9.9 				"/>
				<rect x="56.4" y="20.9" width="1.2" height="3.7"/>
				<rect x="55.2" y="23.3" width="1.2" height="2.4"/>
				<rect x="54" y="24.6" width="1.2" height="2.4"/>
				<rect x="52.7" y="25.8" width="1.2" height="2.4"/>
				<polygon points="50.3,27 50.3,28.2 40.4,28.2 40.4,27 39.2,27 36.7,27 36.7,27 37.9,27 37.9,25.8 36.7,25.8 36.7,24.6 
					35.5,24.6 35.5,19.7 36.7,19.7 36.7,16 35.5,16 35.5,18.3 34.3,18.3 34.3,25.8 35.5,25.8 35.5,27 35.5,28.2 36.7,28.2 
					36.7,28.2 39.2,28.2 39.2,29.4 40.4,29.4 50.3,29.4 51.5,29.4 51.5,28.2 52.7,28.2 52.7,27 51.5,27 				"/>
				<polygon points="38,17.3 38,13.5 38,13.5 36.8,13.5 35.5,13.5 35.5,14.7 36.8,14.7 36.8,17.3 				"/>
				<polygon points="36.8,12.3 33.1,12.3 33.1,11.1 35.5,11.1 35.5,9.9 36.7,9.9 36.7,9.8 36.7,9.8 36.7,3.7 37.9,3.7 37.9,2.4 
					35.5,2.4 35.5,2.5 35.5,3.7 35.5,8.7 34.3,8.7 34.3,9.9 31.9,9.9 31.9,9.9 31.9,11.1 31.9,12.3 31.9,13.5 31.9,13.5 33.1,13.5 
					33.1,13.5 36.8,13.5 				"/>
				<rect x="36.8" y="1.2" width="9.8" height="1.2"/>
			</g>
		</g>
		<rect x="45.1" y="22.7" class="st8" width="1.4" height="3.1"/>
		<rect x="44.3" y="24.4" class="st8" width="1.4" height="1.4"/>
		<rect x="43.4" y="24.4" class="st8" width="1.4" height="1.4"/>
	</g>
	<rect x="22.5" y="6.6" transform="matrix(-1 -1.227739e-10 1.227739e-10 -1 47.5226 17.405)" width="2.6" height="4.2"/>
	<rect x="31.1" y="7.9" width="4.2" height="2.4"/>
	<g>
		<g>
			<polygon class="st8" points="21.3,2.9 15.8,2.9 15.8,3.6 15.1,3.6 15.1,9.1 12.8,9.1 12.8,8.1 8.3,8.1 8.3,15.1 9,15.1 9,16.6 
				9.8,16.6 9.8,17.3 10.6,17.3 10.6,18.1 11.3,18.1 11.3,18.9 12.9,18.9 12.9,19.6 19.6,19.6 19.6,18.8 22,18.8 22,17.2 22.7,17.2 
				22.7,13.5 21.9,13.5 21.9,11.9 21.2,11.9 21.2,10.5 22,10.5 22,9.6 24.3,9.6 24.3,8.2 22.7,8.2 22.7,7.4 21.9,7.4 21.9,3.6 
				21.2,3.6 			"/>
			
				<rect x="13.2" y="18.4" transform="matrix(-1 -4.477941e-11 4.477941e-11 -1 32.4982 37.6424)" class="st9" width="6.1" height="0.7"/>
			
				<rect x="11.7" y="17.7" transform="matrix(-1 -4.477941e-11 4.477941e-11 -1 29.4589 36.1228)" class="st9" width="6.1" height="0.7"/>
			
				<rect x="9.4" y="16.9" transform="matrix(-1 -4.477941e-11 4.477941e-11 -1 24.9 34.6031)" class="st9" width="6.1" height="0.7"/>
			
				<rect x="9.3" y="16.2" transform="matrix(-1 -4.518131e-11 4.518131e-11 -1 21.7341 33.0835)" class="st9" width="3.2" height="0.7"/>
			
				<rect x="9" y="15.4" transform="matrix(-1 -4.500679e-11 4.500679e-11 -1 19.9757 31.5639)" class="st9" width="1.9" height="0.7"/>
			
				<rect x="8.3" y="14.6" transform="matrix(-1 -4.500679e-11 4.500679e-11 -1 18.4561 30.0442)" class="st9" width="1.9" height="0.7"/>
			
				<rect x="8.3" y="8.3" transform="matrix(-1 -4.526791e-11 4.526791e-11 -1 17.7109 22.9842)" class="st9" width="1.1" height="6.3"/>
			
				<rect x="15.5" y="13.9" transform="matrix(-1 -4.499524e-11 4.499524e-11 -1 37.0864 30.8479)" class="st10" width="6.1" height="3"/>
			
				<rect x="15.5" y="13.1" transform="matrix(-1 -4.490642e-11 4.490642e-11 -1 36.2882 30.787)" class="st10" width="5.3" height="4.6"/>
			
				<rect x="15.5" y="12.4" transform="matrix(-1 -4.504631e-11 4.504631e-11 -1 35.5046 30.1026)" class="st10" width="4.5" height="5.3"/>
			
				<rect x="11.7" y="12.4" transform="matrix(-1 -4.480872e-11 4.480872e-11 -1 31.7055 25.512)" class="st10" width="8.3" height="0.7"/>
			
				<rect x="11.7" y="11.6" transform="matrix(-1 -4.452806e-11 4.452806e-11 -1 27.2233 24.7084)" class="st10" width="3.8" height="1.5"/>
			
				<rect x="12.4" y="11.6" transform="matrix(-1 -4.490998e-11 4.490998e-11 -1 27.1941 25.5291)" class="st10" width="2.3" height="2.3"/>
			
				<rect x="10.9" y="10.9" transform="matrix(-1 -4.490998e-11 4.490998e-11 -1 24.1548 24.0095)" class="st10" width="2.3" height="2.3"/>
			
				<rect x="10.2" y="10.1" transform="matrix(-1 -4.490998e-11 4.490998e-11 -1 22.6351 22.4898)" class="st10" width="2.3" height="2.3"/>
			
				<rect x="9.4" y="9.3" transform="matrix(-1 -4.490998e-11 4.490998e-11 -1 21.1155 20.9702)" class="st10" width="2.3" height="2.3"/>
			
				<rect x="16.2" y="4.8" transform="matrix(-1 -4.648205e-11 4.648205e-11 -1 33.279 10.2797)" class="st11" width="0.8" height="0.7"/>
			
				<rect x="10.2" y="11.6" transform="matrix(-1 -4.648205e-11 4.648205e-11 -1 21.1219 23.9565)" class="st11" width="0.8" height="0.7"/>
			
				<rect x="10.9" y="12.4" transform="matrix(-1 -4.648205e-11 4.648205e-11 -1 22.6415 25.4761)" class="st11" width="0.8" height="0.7"/>
			
				<rect x="16.2" y="4" transform="matrix(-1 -4.479940e-11 4.479940e-11 -1 37.0718 8.7381)" class="st10" width="4.6" height="0.8"/>
			
				<rect x="20" y="5.4" transform="matrix(-1 -4.410706e-11 4.410706e-11 -1 41.554 12.4404)" class="st0" width="1.6" height="1.6"/>
			
				<rect x="20.8" y="6.2" transform="matrix(-1 -4.410706e-11 4.410706e-11 -1 42.3376 13.9601)" class="st0" width="0.8" height="1.6"/>
			
				<rect x="17" y="6.2" transform="matrix(-1 -4.410706e-11 4.410706e-11 -1 34.7393 13.9601)" class="st0" width="0.8" height="1.6"/>
			
				<rect x="17.7" y="6.2" transform="matrix(-1 -4.410706e-11 4.410706e-11 -1 36.259 13.9601)" class="st0" width="0.8" height="1.6"/>
			
				<rect x="17.7" y="5.4" transform="matrix(-1 -4.642876e-11 4.642876e-11 -1 36.259 12.4404)" class="st0" width="0.8" height="1.6"/>
			
				<rect x="18.5" y="5.4" transform="matrix(-1 -4.410706e-11 4.410706e-11 -1 37.7786 12.4404)" class="st0" width="0.8" height="1.6"/>
			
				<rect x="17.7" y="6.2" transform="matrix(-4.526797e-11 1 -1 -4.526797e-11 25.1095 -11.1494)" class="st0" width="0.8" height="1.6"/>
			
				<rect x="20.8" y="6.3" transform="matrix(-1 -4.637725e-11 4.637725e-11 -1 42.4051 13.3528)" class="st12" width="0.7" height="0.7"/>
			
				<rect x="17.7" y="8.6" transform="matrix(-1 -4.490287e-11 4.490287e-11 -1 41.5923 17.9089)" class="st13" width="6.1" height="0.8"/>
			
				<rect x="17" y="7.8" transform="matrix(-1 -4.463775e-11 4.463775e-11 -1 39.3348 17.0943)" class="st9" width="5.4" height="1.6"/>
			
				<rect x="17.7" y="7.8" transform="matrix(-1 -4.489221e-11 4.489221e-11 -1 40.0946 17.8542)" class="st9" width="4.6" height="2.3"/>
			
				<rect x="20" y="4.7" transform="matrix(-1 -4.483093e-11 4.483093e-11 -1 42.0827 10.3034)" class="st9" width="2" height="0.8"/>
			
				<rect x="17" y="4.7" transform="matrix(-1 -4.483093e-11 4.483093e-11 -1 36.0042 10.3034)" class="st9" width="2" height="0.8"/>
			
				<rect x="18.5" y="7.8" transform="matrix(-1 -4.505253e-11 4.505253e-11 -1 40.8782 18.5902)" class="st9" width="3.8" height="3.1"/>
			
				<rect x="18.5" y="7" transform="matrix(-1 -4.515778e-11 4.515778e-11 -1 39.2983 15.5747)" class="st9" width="2.3" height="1.6"/>
			
				<rect x="18.5" y="7.8" transform="matrix(-1 -4.515778e-11 4.515778e-11 -1 39.2983 17.0943)" class="st13" width="2.3" height="1.6"/>
			
				<rect x="17.8" y="8.6" transform="matrix(-1 -4.477941e-11 4.477941e-11 -1 41.6161 17.9089)" class="st13" width="6.1" height="0.8"/>
			
				<rect x="17.8" y="6.3" transform="matrix(-1 -4.393609e-11 4.393609e-11 -1 36.3265 13.3528)" class="st12" width="0.7" height="0.7"/>
			<rect x="17" y="4" transform="matrix(-1 -4.415813e-11 4.415813e-11 -1 34.7987 8.76)" class="st11" width="0.8" height="0.7"/>
			<g>
				<rect x="14.8" y="3.3" width="1.5" height="0.7"/>
				<polygon points="15.5,4 15.5,8.6 15.5,9.3 14.8,9.3 12.4,9.3 12.4,8.6 14.8,8.6 14.8,4 				"/>
				<polygon points="8.6,7.8 13.2,7.8 13.2,8.6 8.6,8.6 8.6,15.4 7.9,15.4 7.9,7.8 				"/>
				<rect x="8.7" y="14.6" width="0.7" height="2.3"/>
				<rect x="9.4" y="16.2" width="0.7" height="1.5"/>
				<rect x="10.2" y="16.9" width="0.7" height="1.5"/>
				<rect x="11" y="17.7" width="0.7" height="1.5"/>
				<polygon points="13.2,18.4 13.2,19.2 19.3,19.2 19.3,18.4 20,18.4 21.6,18.4 21.6,18.4 20.8,18.4 20.8,17.7 21.6,17.7 
					21.6,16.9 22.3,16.9 22.3,13.9 21.6,13.9 21.6,11.6 22.3,11.6 22.3,13 23.1,13 23.1,17.7 22.3,17.7 22.3,18.4 22.3,19.2 
					21.6,19.2 21.6,19.2 20,19.2 20,19.9 19.3,19.9 13.2,19.9 12.5,19.9 12.5,19.2 11.7,19.2 11.7,18.4 12.5,18.4 				"/>
				<polygon points="20.8,12.4 20.8,10.1 20.8,10.1 21.6,10.1 22.4,10.1 22.4,10.8 21.6,10.8 21.6,12.4 				"/>
				<polygon points="21.6,9.3 23.9,9.3 23.9,8.6 22.3,8.6 22.3,7.8 21.6,7.8 21.6,7.8 21.6,7.8 21.6,4 20.8,4 20.8,3.2 22.3,3.2 
					22.3,3.3 22.3,4 22.3,7.1 23.1,7.1 23.1,7.8 24.6,7.8 24.6,7.8 24.6,8.6 24.6,9.3 24.6,10.1 24.6,10.1 23.9,10.1 23.9,10.1 
					21.6,10.1 				"/>
				<rect x="15.5" y="2.5" width="6" height="0.7"/>
			</g>
		</g>
		
			<rect x="15.5" y="15.8" transform="matrix(-1 -4.617074e-11 4.617074e-11 -1 31.8891 33.478)" class="st8" width="0.9" height="1.9"/>
		
			<rect x="16" y="16.8" transform="matrix(-1 -4.617074e-11 4.617074e-11 -1 32.9389 34.5108)" class="st8" width="0.9" height="0.9"/>
		
			<rect x="16.6" y="16.8" transform="matrix(-1 -4.407198e-11 4.407198e-11 -1 33.9886 34.5108)" class="st8" width="0.9" height="0.9"/>
	</g>
	<rect x="29.8" y="9.8" transform="matrix(-1.836970e-16 1 -1 -1.836970e-16 42.851 -20.8262)" width="4.2" height="2.4"/>
</g>
</svg>
