<?xml version="1.0" encoding="utf-8"?>
<!-- Generator: Adobe Illustrator 24.1.1, SVG Export Plug-In . SVG Version: 6.00 Build 0)  -->
<svg version="1.1" id="Livello_1" xmlns="http://www.w3.org/2000/svg" xmlns:xlink="http://www.w3.org/1999/xlink" x="0px" y="0px"
	 viewBox="0 0 204 200" style="enable-background:new 0 0 204 200;" xml:space="preserve">
<style type="text/css">
	.st0{opacity:0.5;}
	.st1{opacity:0.7;}
	.st2{enable-background:new    ;}
	.st3{clip-path:url(#SVGID_2_);}
	.st4{fill:#EFEFEF;}
	.st5{opacity:0.4;}
	.st6{clip-path:url(#SVGID_4_);}
	.st7{clip-path:url(#SVGID_6_);}
	.st8{opacity:0.2;}
	.st9{clip-path:url(#SVGID_8_);}
	.st10{clip-path:url(#SVGID_10_);}
	.st11{opacity:0.6;}
	.st12{clip-path:url(#SVGID_12_);}
	.st13{clip-path:url(#SVGID_14_);}
	.st14{clip-path:url(#SVGID_16_);}
	.st15{clip-path:url(#SVGID_18_);}
	.st16{opacity:0.3;}
	.st17{clip-path:url(#SVGID_20_);}
	.st18{clip-path:url(#SVGID_22_);}
	.st19{clip-path:url(#SVGID_24_);}
	.st20{clip-path:url(#SVGID_26_);}
	.st21{clip-path:url(#SVGID_28_);}
	.st22{clip-path:url(#SVGID_30_);}
	.st23{clip-path:url(#SVGID_32_);}
	.st24{clip-path:url(#SVGID_34_);}
	.st25{clip-path:url(#SVGID_36_);}
	.st26{clip-path:url(#SVGID_38_);}
	.st27{clip-path:url(#SVGID_40_);}
	.st28{clip-path:url(#SVGID_42_);}
	.st29{clip-path:url(#SVGID_44_);}
	.st30{clip-path:url(#SVGID_46_);}
</style>
<g class="st0">
	<g class="st1">
		<g>
			<g class="st2">
				<g>
					<defs>
						<polygon id="SVGID_1_" points="104.5,197.5 73.4,182.9 103.7,167.2 134.8,181.8 						"/>
					</defs>
					<clipPath id="SVGID_2_">
						<use xlink:href="#SVGID_1_"  style="overflow:visible;"/>
					</clipPath>
					<g class="st3">
						<g>
							<g>
								<g>
									<polyline class="st4" points="103.7,167.2 73.4,182.9 104.5,197.5 134.8,181.8 103.7,167.2 									"/>
								</g>
							</g>
						</g>
					</g>
				</g>
			</g>
		</g>
	</g>
	<g class="st5">
		<g>
			<g class="st2">
				<g>
					<defs>
						<polygon id="SVGID_3_" points="71.5,182.1 40.3,167.5 70.7,151.8 101.8,166.4 						"/>
					</defs>
					<clipPath id="SVGID_4_">
						<use xlink:href="#SVGID_3_"  style="overflow:visible;"/>
					</clipPath>
					<g class="st6">
						<g>
							<g>
								<g>
									<polyline class="st4" points="70.7,151.8 40.3,167.5 71.5,182.1 101.8,166.4 70.7,151.8 									"/>
								</g>
							</g>
						</g>
					</g>
				</g>
			</g>
		</g>
	</g>
	<g class="st1">
		<g>
			<g class="st2">
				<g>
					<defs>
						<polygon id="SVGID_5_" points="39.6,199.4 8.5,184.7 38.8,169 69.9,183.7 						"/>
					</defs>
					<clipPath id="SVGID_6_">
						<use xlink:href="#SVGID_5_"  style="overflow:visible;"/>
					</clipPath>
					<g class="st7">
						<g>
							<g>
								<g>
									<polyline class="st4" points="38.8,169 8.5,184.7 39.6,199.4 69.9,183.7 38.8,169 									"/>
								</g>
							</g>
						</g>
					</g>
				</g>
			</g>
		</g>
	</g>
	<g class="st8">
		<g>
			<g class="st2">
				<g>
					<defs>
						<polygon id="SVGID_7_" points="38.3,133 7.1,118.4 37.5,102.7 68.6,117.3 						"/>
					</defs>
					<clipPath id="SVGID_8_">
						<use xlink:href="#SVGID_7_"  style="overflow:visible;"/>
					</clipPath>
					<g class="st9">
						<g>
							<g>
								<g>
									<polyline class="st4" points="37.5,102.7 7.1,118.4 38.3,133 68.6,117.3 37.5,102.7 									"/>
								</g>
							</g>
						</g>
					</g>
				</g>
			</g>
		</g>
	</g>
	<g class="st5">
		<g>
			<g class="st2">
				<g>
					<defs>
						<polygon id="SVGID_9_" points="136.3,180.3 105.2,165.6 135.5,149.9 166.7,164.6 						"/>
					</defs>
					<clipPath id="SVGID_10_">
						<use xlink:href="#SVGID_9_"  style="overflow:visible;"/>
					</clipPath>
					<g class="st10">
						<g>
							<g>
								<g>
									<polyline class="st4" points="135.5,149.9 105.2,165.6 136.3,180.3 166.7,164.6 135.5,149.9 									"/>
								</g>
							</g>
						</g>
					</g>
				</g>
			</g>
		</g>
	</g>
	<g class="st11">
		<g>
			<g class="st2">
				<g>
					<defs>
						<polygon id="SVGID_11_" points="169.5,196.2 138.4,181.6 168.7,165.8 199.9,180.5 						"/>
					</defs>
					<clipPath id="SVGID_12_">
						<use xlink:href="#SVGID_11_"  style="overflow:visible;"/>
					</clipPath>
					<g class="st12">
						<g>
							<g>
								<g>
									<polyline class="st4" points="168.7,165.8 138.4,181.6 169.5,196.2 199.9,180.5 168.7,165.8 									"/>
								</g>
							</g>
						</g>
					</g>
				</g>
			</g>
		</g>
	</g>
	<g class="st8">
		<g>
			<g class="st2">
				<g>
					<defs>
						<polygon id="SVGID_13_" points="103.3,164.9 72.2,150.2 102.5,134.5 133.6,149.2 						"/>
					</defs>
					<clipPath id="SVGID_14_">
						<use xlink:href="#SVGID_13_"  style="overflow:visible;"/>
					</clipPath>
					<g class="st13">
						<g>
							<g>
								<g>
									<polyline class="st4" points="102.5,134.5 72.2,150.2 103.3,164.9 133.6,149.2 102.5,134.5 									"/>
								</g>
							</g>
						</g>
					</g>
				</g>
			</g>
		</g>
	</g>
	<g class="st11">
		<g>
			<g class="st2">
				<g>
					<defs>
						<polygon id="SVGID_15_" points="168.2,163 137.1,148.4 167.4,132.7 198.5,147.3 						"/>
					</defs>
					<clipPath id="SVGID_16_">
						<use xlink:href="#SVGID_15_"  style="overflow:visible;"/>
					</clipPath>
					<g class="st14">
						<g>
							<g>
								<g>
									<polyline class="st4" points="167.4,132.7 137.1,148.4 168.2,163 198.5,147.3 167.4,132.7 									"/>
								</g>
							</g>
						</g>
					</g>
				</g>
			</g>
		</g>
	</g>
	<g class="st1">
		<g>
			<g class="st2">
				<g>
					<defs>
						<polygon id="SVGID_17_" points="135.2,147.6 104,133 134.4,117.3 165.5,131.9 						"/>
					</defs>
					<clipPath id="SVGID_18_">
						<use xlink:href="#SVGID_17_"  style="overflow:visible;"/>
					</clipPath>
					<g class="st15">
						<g>
							<g>
								<g>
									<polyline class="st4" points="134.4,117.3 104,133 135.2,147.6 165.5,131.9 134.4,117.3 									"/>
								</g>
							</g>
						</g>
					</g>
				</g>
			</g>
		</g>
	</g>
	<g class="st16">
		<g>
			<g class="st2">
				<g>
					<defs>
						<polygon id="SVGID_19_" points="38.3,166.2 7.1,151.6 37.5,135.8 68.6,150.5 						"/>
					</defs>
					<clipPath id="SVGID_20_">
						<use xlink:href="#SVGID_19_"  style="overflow:visible;"/>
					</clipPath>
					<g class="st17">
						<g>
							<g>
								<g>
									<polyline class="st4" points="37.5,135.8 7.1,151.6 38.3,166.2 68.6,150.5 37.5,135.8 									"/>
								</g>
							</g>
						</g>
					</g>
				</g>
			</g>
		</g>
	</g>
	<g class="st5">
		<g>
			<g class="st2">
				<g>
					<defs>
						<polygon id="SVGID_21_" points="69.5,116 38.3,101.4 68.7,85.7 99.8,100.3 						"/>
					</defs>
					<clipPath id="SVGID_22_">
						<use xlink:href="#SVGID_21_"  style="overflow:visible;"/>
					</clipPath>
					<g class="st18">
						<g>
							<g>
								<g>
									<polyline class="st4" points="68.7,85.7 38.3,101.4 69.5,116 99.8,100.3 68.7,85.7 									"/>
								</g>
							</g>
						</g>
					</g>
				</g>
			</g>
		</g>
	</g>
	<g class="st5">
		<g>
			<g class="st2">
				<g>
					<defs>
						<polygon id="SVGID_23_" points="134.3,114.2 103.2,99.5 133.5,83.8 164.7,98.5 						"/>
					</defs>
					<clipPath id="SVGID_24_">
						<use xlink:href="#SVGID_23_"  style="overflow:visible;"/>
					</clipPath>
					<g class="st19">
						<g>
							<g>
								<g>
									<polyline class="st4" points="133.5,83.8 103.2,99.5 134.3,114.2 164.7,98.5 133.5,83.8 									"/>
								</g>
							</g>
						</g>
					</g>
				</g>
			</g>
		</g>
	</g>
	<g class="st8">
		<g>
			<g class="st2">
				<g>
					<defs>
						<polygon id="SVGID_25_" points="101.3,98.8 70.2,84.1 100.5,68.4 131.6,83.1 						"/>
					</defs>
					<clipPath id="SVGID_26_">
						<use xlink:href="#SVGID_25_"  style="overflow:visible;"/>
					</clipPath>
					<g class="st20">
						<g>
							<g>
								<g>
									<polyline class="st4" points="100.5,68.4 70.2,84.1 101.3,98.8 131.6,83.1 100.5,68.4 									"/>
								</g>
							</g>
						</g>
					</g>
				</g>
			</g>
		</g>
	</g>
	<g class="st11">
		<g>
			<g class="st2">
				<g>
					<defs>
						<polygon id="SVGID_27_" points="166.2,96.9 135.1,82.3 165.4,66.6 196.5,81.2 						"/>
					</defs>
					<clipPath id="SVGID_28_">
						<use xlink:href="#SVGID_27_"  style="overflow:visible;"/>
					</clipPath>
					<g class="st21">
						<g>
							<g>
								<g>
									<polyline class="st4" points="165.4,66.6 135.1,82.3 166.2,96.9 196.5,81.2 165.4,66.6 									"/>
								</g>
							</g>
						</g>
					</g>
				</g>
			</g>
		</g>
	</g>
	<g class="st16">
		<g>
			<g class="st2">
				<g>
					<defs>
						<polygon id="SVGID_29_" points="36.3,100.1 5.1,85.5 35.5,69.7 66.6,84.4 						"/>
					</defs>
					<clipPath id="SVGID_30_">
						<use xlink:href="#SVGID_29_"  style="overflow:visible;"/>
					</clipPath>
					<g class="st22">
						<g>
							<g>
								<g>
									<polyline class="st4" points="35.5,69.7 5.1,85.5 36.3,100.1 66.6,84.4 35.5,69.7 									"/>
								</g>
							</g>
						</g>
					</g>
				</g>
			</g>
		</g>
	</g>
	<g class="st11">
		<g>
			<g class="st2">
				<g>
					<defs>
						<polygon id="SVGID_31_" points="70.1,149 39,134.3 69.3,118.6 100.5,133.2 						"/>
					</defs>
					<clipPath id="SVGID_32_">
						<use xlink:href="#SVGID_31_"  style="overflow:visible;"/>
					</clipPath>
					<g class="st23">
						<g>
							<g>
								<g>
									<polyline class="st4" points="69.3,118.6 39,134.3 70.1,149 100.5,133.2 69.3,118.6 									"/>
								</g>
							</g>
						</g>
					</g>
				</g>
			</g>
		</g>
	</g>
	<g class="st8">
		<g>
			<g class="st2">
				<g>
					<defs>
						<polygon id="SVGID_33_" points="102,131.7 70.9,117 101.2,101.3 132.3,116 						"/>
					</defs>
					<clipPath id="SVGID_34_">
						<use xlink:href="#SVGID_33_"  style="overflow:visible;"/>
					</clipPath>
					<g class="st24">
						<g>
							<g>
								<g>
									<polyline class="st4" points="101.2,101.3 70.9,117 102,131.7 132.3,116 101.2,101.3 									"/>
								</g>
							</g>
						</g>
					</g>
				</g>
			</g>
		</g>
	</g>
	<g>
		<g>
			<g class="st2">
				<g>
					<defs>
						<polygon id="SVGID_35_" points="167,130.4 135.9,115.7 166.2,100 197.4,114.7 						"/>
					</defs>
					<use xlink:href="#SVGID_35_"  style="overflow:visible;fill:#EFEFEF;"/>
					<clipPath id="SVGID_36_">
						<use xlink:href="#SVGID_35_"  style="overflow:visible;"/>
					</clipPath>
					<g class="st25">
						<g>
							<g>
								<g>
									<polyline class="st4" points="166.2,100 135.9,115.7 167,130.4 197.4,114.7 166.2,100 									"/>
								</g>
							</g>
						</g>
					</g>
				</g>
			</g>
		</g>
	</g>
	<g class="st8">
		<g>
			<g class="st2">
				<g>
					<defs>
						<polygon id="SVGID_37_" points="35.3,66.8 4.1,52.2 34.5,36.5 65.6,51.1 						"/>
					</defs>
					<clipPath id="SVGID_38_">
						<use xlink:href="#SVGID_37_"  style="overflow:visible;"/>
					</clipPath>
					<g class="st26">
						<g>
							<g>
								<g>
									<polyline class="st4" points="34.5,36.5 4.1,52.2 35.3,66.8 65.6,51.1 34.5,36.5 									"/>
								</g>
							</g>
						</g>
					</g>
				</g>
			</g>
		</g>
	</g>
	<g class="st1">
		<g>
			<g class="st2">
				<g>
					<defs>
						<polygon id="SVGID_39_" points="132.2,81.4 101,66.8 131.4,51.1 162.5,65.7 						"/>
					</defs>
					<clipPath id="SVGID_40_">
						<use xlink:href="#SVGID_39_"  style="overflow:visible;"/>
					</clipPath>
					<g class="st27">
						<g>
							<g>
								<g>
									<polyline class="st4" points="131.4,51.1 101,66.8 132.2,81.4 162.5,65.7 131.4,51.1 									"/>
								</g>
							</g>
						</g>
					</g>
				</g>
			</g>
		</g>
	</g>
	<g class="st11">
		<g>
			<g class="st2">
				<g>
					<defs>
						<polygon id="SVGID_41_" points="67.1,82.8 36,68.1 66.3,52.4 97.5,67 						"/>
					</defs>
					<clipPath id="SVGID_42_">
						<use xlink:href="#SVGID_41_"  style="overflow:visible;"/>
					</clipPath>
					<g class="st28">
						<g>
							<g>
								<g>
									<polyline class="st4" points="66.3,52.4 36,68.1 67.1,82.8 97.5,67 66.3,52.4 									"/>
								</g>
							</g>
						</g>
					</g>
				</g>
			</g>
		</g>
	</g>
	<g class="st8">
		<g>
			<g class="st2">
				<g>
					<defs>
						<polygon id="SVGID_43_" points="99,65.5 67.9,50.8 98.2,35.1 129.3,49.8 						"/>
					</defs>
					<clipPath id="SVGID_44_">
						<use xlink:href="#SVGID_43_"  style="overflow:visible;"/>
					</clipPath>
					<g class="st29">
						<g>
							<g>
								<g>
									<polyline class="st4" points="98.2,35.1 67.9,50.8 99,65.5 129.3,49.8 98.2,35.1 									"/>
								</g>
							</g>
						</g>
					</g>
				</g>
			</g>
		</g>
	</g>
	<g>
		<g>
			<g class="st2">
				<g>
					<defs>
						<polygon id="SVGID_45_" points="164,64.2 132.9,49.5 163.2,33.8 194.4,48.5 						"/>
					</defs>
					<use xlink:href="#SVGID_45_"  style="overflow:visible;fill:#EFEFEF;"/>
					<clipPath id="SVGID_46_">
						<use xlink:href="#SVGID_45_"  style="overflow:visible;"/>
					</clipPath>
					<g class="st30">
						<g>
							<g>
								<g>
									<polyline class="st4" points="163.2,33.8 132.9,49.5 164,64.2 194.4,48.5 163.2,33.8 									"/>
								</g>
							</g>
						</g>
					</g>
				</g>
			</g>
		</g>
	</g>
</g>
</svg>
