<?xml version="1.0" encoding="utf-8"?>
<!-- Generator: Adobe Illustrator 21.0.2, SVG Export Plug-In . SVG Version: 6.00 Build 0)  -->
<svg version="1.1" id="Livello_1" xmlns="http://www.w3.org/2000/svg" xmlns:xlink="http://www.w3.org/1999/xlink" x="0px" y="0px"
	 viewBox="0 0 396.8 137.1" style="enable-background:new 0 0 396.8 137.1;" xml:space="preserve">
<style type="text/css">
	.st0{fill:#FFCE00;}
	.st1{fill:#0C0C0C;}
	.st2{fill:#F47400;}
	.st3{fill:url(#SVGID_1_);}
	.st4{fill:url(#SVGID_2_);}
	.st5{fill:url(#SVGID_3_);}
	.st6{fill:url(#SVGID_4_);}
	.st7{fill:url(#SVGID_5_);}
	.st8{opacity:0.3;fill:#F2F2F2;}
	.st9{fill:#DDDDDD;}
	.st10{fill:url(#SVGID_6_);}
	.st11{fill:#FF9300;}
	.st12{fill:#AA5604;}
	.st13{fill:#7A3E0E;}
	.st14{fill:#8B8B8B;}
	.st15{fill:#E72828;}
	.st16{fill:#FFE310;}
	.st17{fill:#FF6D00;}
	.st18{fill:#B8B8B8;}
	.st19{fill:#6699FF;}
	.st20{fill:#4977D2;}
	.st21{fill:#CC5F0E;}
	.st22{fill:#FF6326;}
</style>
<g>
	<g>
		<path class="st0" d="M101.8,52.8c-0.1-1.2-0.2-2.4-0.5-3.6c-0.3-1.2-0.4-2.3-0.3-3.3c0.1-1,0.5-1.8,1.3-2.4c0.8-0.7,2.2-1,4.3-1.1
			H128c2.8,0,5.3,0.5,7.8,1.6c2.4,1.1,4.6,2.5,6.3,4.3s3.2,3.9,4.3,6.3c1.1,2.4,1.6,5,1.6,7.8c0,2.1-0.3,4-0.9,5.8
			c-0.6,1.8-1.4,3.5-2.5,5c1.4,1.7,2.6,3.7,3.5,5.8s1.3,4.5,1.3,7.1c0,3-0.6,5.7-1.7,8.3c-1.1,2.6-2.7,4.8-4.6,6.8
			c-1.9,1.9-4.2,3.4-6.8,4.5c-2.6,1.1-5.3,1.7-8.3,1.7h-16.5c-1.4,0-2.6-0.3-3.8-0.8c-1.2-0.5-2.2-1.2-3-2.1c-0.9-0.9-1.5-1.9-2.1-3
			c-0.5-1.2-0.8-2.4-0.8-3.8V52.8z M121.2,60v6.1h0.4l6.7-0.2c0.6-0.1,1.2-0.3,1.7-0.8c0.5-0.4,0.7-1,0.7-1.8c0-1-0.3-1.7-0.8-2.3
			c-0.6-0.6-1.2-0.8-1.9-0.8l-6.4-0.2H121.2z M121.2,81.1v7.1h0.4L128,88c0.8,0,1.5-0.2,2.3-0.6c0.8-0.4,1.2-1.2,1.2-2.5
			c0-1.2-0.3-2-1-2.6c-0.7-0.6-1.4-0.9-2.2-1l-6.7-0.2H121.2z"/>
		<path class="st1" d="M128,113.3h-16.5c-2.2,0-4.3-0.4-6.2-1.3c-1.8-0.8-3.5-1.9-4.9-3.3c-1.4-1.4-2.5-3-3.3-4.8
			c-0.8-1.9-1.3-4-1.3-6.2V53c-0.1-0.8-0.2-1.7-0.4-2.5c-0.4-1.8-0.5-3.5-0.4-5c0.2-2.6,1.4-4.9,3.4-6.6c1.9-1.6,4.4-2.3,7.9-2.4
			l21.7,0c3.6,0,7,0.7,10.2,2.1c3.1,1.4,5.9,3.2,8.2,5.5c2.3,2.3,4.2,5,5.5,8.2c1.4,3.2,2.1,6.6,2.1,10.2c0,2.7-0.4,5.2-1.2,7.6
			c-0.3,1-0.7,2-1.1,2.9c0.7,1.2,1.4,2.6,1.9,3.9c1.1,2.8,1.7,6,1.7,9.3c0,3.8-0.7,7.4-2.2,10.7c-1.4,3.3-3.4,6.1-5.8,8.6
			c-2.5,2.5-5.4,4.4-8.6,5.8C135.3,112.6,131.8,113.3,128,113.3z M107.2,48.3c0.3,1.4,0.5,2.8,0.6,4.1l0,0.4v44.9
			c0,0.5,0.1,1,0.3,1.4c0.2,0.5,0.5,0.9,0.8,1.2c0.3,0.4,0.8,0.6,1.3,0.8c0.4,0.2,0.9,0.3,1.4,0.3H128c2.2,0,4.1-0.4,6-1.2
			c1.9-0.8,3.5-1.9,4.9-3.3c1.4-1.4,2.5-3,3.4-5c0.8-1.8,1.2-3.8,1.2-5.9c0-1.8-0.3-3.4-0.9-4.9c-0.6-1.6-1.4-3-2.5-4.2l-3-3.6
			l2.7-3.8c0.7-1,1.3-2.1,1.7-3.3c0.4-1.2,0.6-2.6,0.6-4c0-1.9-0.4-3.7-1.1-5.4c-0.8-1.8-1.8-3.3-3-4.5c-1.3-1.3-2.8-2.3-4.5-3
			c-1.7-0.7-3.5-1.1-5.4-1.1H107.2z M121.2,94.1h-5.9v-19h6.3l7.8,0.3c1.7,0.3,3.3,1.1,4.8,2.2c2.1,1.7,3.3,4.2,3.3,7.2
			c0,3.5-1.6,6.3-4.4,7.7c-1.6,0.9-3.3,1.3-5.1,1.3L121.2,94.1z M127.8,82C127.8,82,127.8,82,127.8,82L127.8,82
			C127.8,82,127.8,82,127.8,82z M121.2,72h-5.9v-18h6.3l6.6,0.2c0,0,0,0,0,0c2.1,0,4.2,0.9,5.9,2.6c1.2,1.2,2.6,3.2,2.6,6.5
			c0,2.4-0.9,4.6-2.6,6.1c-1.4,1.3-3.2,2.1-5.1,2.3l-0.5,0L121.2,72z M127.8,66.1c0.1,0,0.1,0,0.2,0L127.8,66.1z"/>
	</g>
	<g>
		<path class="st0" d="M156.7,74.9c0-4.5,0.8-8.7,2.5-12.6c1.7-4,4-7.4,7-10.3c3-2.9,6.4-5.2,10.4-7c4-1.7,8.2-2.6,12.6-2.6
			s8.7,0.9,12.6,2.6c4,1.7,7.4,4,10.3,7c2.9,2.9,5.2,6.4,7,10.3c1.7,4,2.6,8.2,2.6,12.6c0,4.5-0.9,8.7-2.6,12.6c-1.7,4-4,7.4-7,10.4
			c-2.9,3-6.4,5.3-10.3,7c-4,1.7-8.2,2.5-12.6,2.5s-8.7-0.8-12.6-2.5c-4-1.7-7.4-4-10.4-7c-3-3-5.3-6.4-7-10.4
			C157.5,83.6,156.7,79.3,156.7,74.9z M176.1,75.1c0,1.8,0.3,3.5,1,5.1c0.7,1.6,1.6,3,2.8,4.2c1.2,1.2,2.6,2.2,4.2,2.9
			c1.6,0.7,3.3,1.1,5.1,1.1s3.5-0.4,5.1-1.1c1.6-0.7,3-1.7,4.2-2.9c1.2-1.2,2.1-2.7,2.8-4.3c0.7-1.7,1-3.4,1-5.2s-0.3-3.5-1-5.1
			c-0.7-1.6-1.6-3-2.8-4.2c-1.2-1.2-2.6-2.2-4.2-2.9c-1.6-0.7-3.3-1.1-5.1-1.1s-3.5,0.4-5.1,1.1c-1.6,0.7-3,1.7-4.2,2.9
			c-1.2,1.2-2.1,2.7-2.8,4.3C176.4,71.6,176.1,73.3,176.1,75.1z"/>
		<path class="st1" d="M189.2,113.3c-5.3,0-10.3-1-15-3c-4.6-2-8.8-4.7-12.2-8.2c-3.5-3.5-6.3-7.6-8.2-12.2c-2-4.7-3-9.7-3-15
			c0-5.3,1-10.3,3-15c2-4.6,4.8-8.8,8.2-12.2c3.5-3.4,7.6-6.2,12.2-8.2c9.4-4.1,20.6-4.1,30,0c4.6,2,8.7,4.8,12.1,8.2
			c3.4,3.4,6.2,7.5,8.2,12.1c2,4.7,3.1,9.7,3.1,15c0,5.3-1,10.3-3.1,15c-2,4.6-4.8,8.7-8.2,12.2c-3.5,3.5-7.6,6.3-12.2,8.3
			C199.5,112.3,194.4,113.3,189.2,113.3z M189.2,48.3c-3.6,0-7.1,0.7-10.3,2.1c-3.3,1.4-6.1,3.3-8.6,5.7c-2.4,2.4-4.3,5.2-5.7,8.4
			c-1.4,3.2-2.1,6.7-2.1,10.3c0,3.7,0.7,7.1,2.1,10.3c1.4,3.2,3.3,6.1,5.7,8.5c2.4,2.4,5.3,4.3,8.5,5.7c3.2,1.4,6.7,2.1,10.3,2.1
			c3.7,0,7.1-0.7,10.3-2.1c3.2-1.4,6.1-3.3,8.4-5.7c2.4-2.4,4.3-5.3,5.7-8.6c1.4-3.2,2.1-6.6,2.1-10.3c0-3.6-0.7-7.1-2.1-10.3
			c-1.4-3.2-3.3-6.1-5.7-8.5c-2.4-2.4-5.2-4.3-8.5-5.7C196.2,49,192.9,48.3,189.2,48.3z M189.2,94.3c-2.6,0-5.2-0.5-7.5-1.6
			c-2.3-1-4.4-2.5-6.1-4.3c-1.6-1.7-3-3.7-3.9-6c-1-2.3-1.5-4.8-1.5-7.4c0-2.6,0.5-5.1,1.5-7.4c1-2.3,2.3-4.4,4-6.1
			c1.7-1.8,3.7-3.2,6.1-4.3c4.8-2.1,10.3-2.1,15,0c2.2,1,4.2,2.4,5.9,4.1c1.7,1.8,3.1,3.8,4.1,6.1c1,2.4,1.5,4.9,1.5,7.4
			c0,2.6-0.5,5.1-1.5,7.4c-1,2.3-2.3,4.4-4.1,6.2c-1.7,1.8-3.7,3.2-6,4.2C194.4,93.8,191.8,94.3,189.2,94.3z M189.2,67.5
			c-1,0-1.8,0.2-2.7,0.6c-0.9,0.4-1.6,0.9-2.3,1.6c-0.7,0.7-1.2,1.5-1.6,2.5c-0.4,0.9-0.6,1.9-0.6,2.9c0,1,0.2,1.9,0.5,2.7
			c0.4,1,1,1.8,1.7,2.5c0.6,0.7,1.4,1.2,2.3,1.6c1.7,0.8,3.6,0.8,5.3,0c0.9-0.4,1.7-1,2.4-1.7c0.7-0.7,1.2-1.5,1.6-2.5
			c0.4-0.9,0.6-1.9,0.6-2.9c0-1-0.2-1.9-0.6-2.8c-0.4-0.9-0.9-1.7-1.6-2.4c-0.7-0.7-1.5-1.2-2.4-1.7C191,67.7,190.1,67.5,189.2,67.5
			z"/>
	</g>
	<g>
		<path class="st0" d="M230.2,52.8c-0.1-1.2-0.2-2.4-0.5-3.6c-0.3-1.2-0.4-2.3-0.3-3.3c0.1-1,0.5-1.8,1.3-2.4c0.8-0.7,2.2-1,4.3-1.1
			h21.5c2.8,0,5.3,0.5,7.8,1.6c2.4,1.1,4.6,2.5,6.3,4.3s3.2,3.9,4.3,6.3c1.1,2.4,1.6,5,1.6,7.8c0,2.1-0.3,4-0.9,5.8
			c-0.6,1.8-1.4,3.5-2.5,5c1.4,1.7,2.6,3.7,3.5,5.8s1.3,4.5,1.3,7.1c0,3-0.6,5.7-1.7,8.3c-1.1,2.6-2.7,4.8-4.6,6.8
			c-1.9,1.9-4.2,3.4-6.8,4.5c-2.6,1.1-5.3,1.7-8.3,1.7h-16.5c-1.4,0-2.6-0.3-3.8-0.8c-1.2-0.5-2.2-1.2-3-2.1c-0.9-0.9-1.5-1.9-2.1-3
			c-0.5-1.2-0.8-2.4-0.8-3.8V52.8z M249.6,60v6.1h0.4l6.7-0.2c0.6-0.1,1.2-0.3,1.7-0.8c0.5-0.4,0.7-1,0.7-1.8c0-1-0.3-1.7-0.8-2.3
			c-0.6-0.6-1.2-0.8-1.9-0.8L250,60H249.6z M249.6,81.1v7.1h0.4l6.4-0.2c0.8,0,1.5-0.2,2.3-0.6c0.8-0.4,1.2-1.2,1.2-2.5
			c0-1.2-0.3-2-1-2.6c-0.7-0.6-1.4-0.9-2.2-1l-6.7-0.2H249.6z"/>
		<path class="st1" d="M256.4,113.3h-16.5c-2.2,0-4.3-0.4-6.2-1.3c-1.8-0.8-3.5-1.9-4.8-3.3c-1.4-1.4-2.5-3-3.3-4.8
			c-0.8-1.9-1.3-4-1.3-6.2V53c-0.1-0.8-0.2-1.7-0.4-2.5c-0.4-1.8-0.5-3.5-0.4-5c0.2-2.6,1.4-4.9,3.4-6.6c1.9-1.6,4.4-2.3,7.9-2.4
			l21.7,0c3.6,0,7,0.7,10.2,2.1c3.1,1.4,5.9,3.2,8.2,5.5c2.3,2.3,4.2,5,5.5,8.2c1.4,3.2,2.1,6.6,2.1,10.2c0,2.7-0.4,5.2-1.2,7.6
			c-0.3,1-0.7,2-1.1,2.9c0.7,1.2,1.4,2.6,1.9,3.9c1.1,2.8,1.7,6,1.7,9.3c0,3.8-0.7,7.4-2.2,10.7c-1.4,3.3-3.4,6.1-5.8,8.6
			c-2.5,2.5-5.4,4.4-8.6,5.8C263.7,112.6,260.1,113.3,256.4,113.3z M235.5,48.3c0.3,1.4,0.5,2.8,0.6,4.1l0,0.4v44.9
			c0,0.5,0.1,1,0.3,1.4c0.2,0.5,0.5,0.9,0.8,1.2c0.3,0.3,0.8,0.6,1.3,0.8c0.4,0.2,0.9,0.3,1.4,0.3h16.5c2.2,0,4.1-0.4,6-1.2
			c1.9-0.8,3.5-1.9,4.9-3.3c1.4-1.4,2.5-3,3.4-5c0.8-1.8,1.2-3.8,1.2-5.9c0-1.8-0.3-3.4-0.9-4.9c-0.6-1.6-1.4-3-2.5-4.2l-3-3.6
			l2.7-3.8c0.7-1,1.3-2.1,1.7-3.3c0.4-1.2,0.6-2.6,0.6-4c0-1.9-0.4-3.7-1.1-5.4c-0.8-1.8-1.8-3.3-3-4.5c-1.3-1.3-2.8-2.3-4.5-3
			c-1.7-0.7-3.5-1.1-5.4-1.1H235.5z M249.6,94.1h-5.9v-19h6.3l7.8,0.3c1.7,0.3,3.3,1.1,4.8,2.2c2.1,1.7,3.3,4.2,3.3,7.2
			c0,3.5-1.6,6.3-4.4,7.7c-1.6,0.9-3.3,1.3-5.1,1.3L249.6,94.1z M256.2,82C256.2,82,256.1,82,256.2,82L256.2,82
			C256.2,82,256.2,82,256.2,82z M249.6,72h-5.9v-18h6.3l6.6,0.2c0,0,0,0,0,0c2.1,0,4.2,0.9,5.9,2.6c1.2,1.2,2.6,3.2,2.6,6.5
			c0,2.4-0.9,4.6-2.6,6.1c-1.4,1.3-3.2,2.1-5.1,2.3l-0.5,0L249.6,72z M256.1,66.1c0.1,0,0.1,0,0.2,0L256.1,66.1z"/>
	</g>
	<g>
		<path class="st0" d="M283.8,52.8c-0.1-1.2-0.2-2.4-0.5-3.6c-0.3-1.2-0.4-2.3-0.3-3.3c0.1-1,0.5-1.8,1.3-2.4c0.8-0.7,2.2-1,4.3-1.1
			H310c2.8,0,5.3,0.5,7.8,1.6c2.4,1.1,4.6,2.5,6.3,4.3s3.2,3.9,4.3,6.3c1.1,2.4,1.6,5,1.6,7.8c0,2.1-0.3,4-0.9,5.8
			c-0.6,1.8-1.4,3.5-2.5,5c1.4,1.7,2.6,3.7,3.5,5.8s1.3,4.5,1.3,7.1c0,3-0.6,5.7-1.7,8.3c-1.1,2.6-2.7,4.8-4.6,6.8
			c-1.9,1.9-4.2,3.4-6.8,4.5c-2.6,1.1-5.3,1.7-8.3,1.7h-16.5c-1.4,0-2.6-0.3-3.8-0.8c-1.2-0.5-2.2-1.2-3-2.1c-0.9-0.9-1.5-1.9-2.1-3
			c-0.5-1.2-0.8-2.4-0.8-3.8V52.8z M303.2,60v6.1h0.4l6.7-0.2c0.6-0.1,1.2-0.3,1.6-0.8c0.5-0.4,0.7-1,0.7-1.8c0-1-0.3-1.7-0.8-2.3
			c-0.6-0.6-1.2-0.8-1.9-0.8l-6.4-0.2H303.2z M303.2,81.1v7.1h0.4L310,88c0.8,0,1.5-0.2,2.3-0.6c0.8-0.4,1.2-1.2,1.2-2.5
			c0-1.2-0.3-2-1-2.6c-0.7-0.6-1.4-0.9-2.2-1l-6.7-0.2H303.2z"/>
		<path class="st1" d="M310,113.3h-16.5c-2.2,0-4.3-0.4-6.2-1.3c-1.8-0.8-3.5-1.9-4.9-3.3c-1.4-1.4-2.5-3-3.3-4.8
			c-0.8-1.9-1.3-4-1.3-6.2V53c-0.1-0.8-0.2-1.7-0.4-2.5c-0.4-1.8-0.5-3.5-0.4-5c0.2-2.6,1.4-4.9,3.4-6.6c1.9-1.5,4.4-2.3,7.9-2.4
			l21.7,0c3.6,0,7,0.7,10.2,2.1c3.1,1.4,5.9,3.2,8.2,5.5c2.3,2.3,4.2,5,5.5,8.2c1.4,3.2,2.1,6.6,2.1,10.2c0,2.7-0.4,5.2-1.2,7.6
			c-0.3,1-0.7,2-1.1,2.9c0.7,1.2,1.4,2.6,1.9,3.9c1.1,2.9,1.7,6,1.7,9.3c0,3.8-0.7,7.4-2.2,10.7c-1.4,3.3-3.4,6.1-5.8,8.6
			c-2.5,2.5-5.4,4.4-8.6,5.8C317.3,112.6,313.8,113.3,310,113.3z M289.2,48.3c0.3,1.4,0.5,2.8,0.6,4.1l0,0.4v44.9
			c0,0.5,0.1,1,0.3,1.4c0.2,0.5,0.5,0.9,0.8,1.2c0.4,0.4,0.8,0.6,1.3,0.8c0.4,0.2,0.9,0.3,1.4,0.3H310c2.2,0,4.1-0.4,6-1.2
			c1.9-0.8,3.5-1.9,4.9-3.3c1.4-1.4,2.5-3,3.4-5c0.8-1.8,1.2-3.8,1.2-5.9c0-1.8-0.3-3.4-0.9-4.9c-0.6-1.6-1.4-3-2.5-4.2l-3-3.6
			l2.7-3.8c0.7-1,1.3-2.1,1.7-3.3c0.4-1.2,0.6-2.6,0.6-4c0-1.9-0.4-3.7-1.1-5.4c-0.8-1.8-1.8-3.3-3-4.5c-1.3-1.3-2.8-2.3-4.5-3
			c-1.7-0.7-3.5-1.1-5.4-1.1H289.2z M288.9,46.3C288.9,46.3,288.9,46.3,288.9,46.3C288.9,46.3,288.9,46.3,288.9,46.3z M303.2,94.1
			h-5.9v-19h6.3l7.8,0.3c1.7,0.3,3.3,1.1,4.8,2.2c2.1,1.7,3.3,4.2,3.3,7.2c0,3.5-1.6,6.3-4.4,7.7c-1.6,0.9-3.3,1.3-5.1,1.3
			L303.2,94.1z M309.8,82C309.8,82,309.8,82,309.8,82L309.8,82C309.8,82,309.8,82,309.8,82z M303.2,72h-5.9v-18h6.3l6.6,0.2
			c0,0,0,0,0,0c2.1,0,4.2,0.9,5.9,2.6c1.2,1.2,2.6,3.2,2.6,6.5c0,2.4-0.9,4.6-2.6,6.1c-1.4,1.3-3.2,2.1-5.1,2.3l-0.5,0L303.2,72z
			 M309.8,66.1c0.1,0,0.1,0,0.2,0L309.8,66.1z"/>
	</g>
	<g>
		<path class="st0" d="M390.2,94.2c1,2.6,0.9,5.1-0.2,7.5c-1.1,2.4-2.9,4-5.5,5c-1.2,0.5-2.5,0.7-3.8,0.7c-1.3,0-2.5-0.3-3.6-0.8
			c-1.1-0.5-2.2-1.2-3-2.2c-0.9-0.9-1.6-2-2.1-3.2l-1.2-2.7h-16.5l-1.2,2.7c-0.5,1.2-1.2,2.3-2.1,3.2c-0.9,0.9-1.9,1.7-3,2.2
			c-1.1,0.5-2.3,0.8-3.6,0.8c-1.3,0-2.5-0.2-3.8-0.7c-2.6-1-4.5-2.6-5.5-5c-1.1-2.4-1.1-4.9-0.2-7.5l17.3-42.3
			c0.3-0.8,0.6-1.7,0.7-2.8c0.1-1.1,0.4-2.1,0.9-3.1c0.5-1,1.3-1.8,2.4-2.5c1.1-0.7,2.8-1,5.1-1h1.1c2.2,0,4.1,0.7,5.6,2
			c1.5,1.3,2.8,3,3.7,5.1L390.2,94.2z M362.5,78l-3.2,7.7h6.4L362.5,78z"/>
		<path class="st1" d="M381,113.3c-0.1,0-0.3,0-0.4,0c-2.1-0.1-4.1-0.5-5.9-1.4c-1.8-0.8-3.5-2-4.9-3.5c-1.2-1.2-2.1-2.6-2.8-4.1
			h-8.9c-0.7,1.5-1.7,2.9-2.8,4.1c-1.4,1.5-3.1,2.6-4.9,3.5c-1.9,0.8-3.9,1.3-5.9,1.4c-2.1,0-4.1-0.3-6.1-1.1
			c-4-1.5-7.1-4.3-8.8-8.1c-1.7-3.8-1.8-7.9-0.3-12l17.4-42.5c0.1-0.2,0.2-0.6,0.3-1.3c0.2-1.7,0.7-3.4,1.5-5c1-2,2.6-3.7,4.7-5
			c2.1-1.3,4.8-1.9,8.2-1.9h1.1c3.6,0,6.9,1.2,9.5,3.5c2.1,1.9,3.9,4.3,5.2,7l18.6,45.1c1.5,4,1.4,8.2-0.3,12
			c-1.7,3.8-4.8,6.6-8.9,8.1C384.8,112.9,382.9,113.3,381,113.3z M361.4,48.3c-1.6,0-2.1,0.2-2.1,0.2c-0.1,0.1-0.1,0.1-0.1,0.1
			c-0.1,0.3-0.2,0.7-0.3,1.1c-0.2,1.7-0.6,3.2-1.2,4.5l-17.3,42.1c-0.5,1.3-0.2,2.1,0.1,2.8c0.3,0.6,0.8,1.4,2.2,1.9
			c0.6,0.2,1.1,0.3,1.6,0.3c0.5,0,0.9-0.1,1.3-0.3c0.4-0.2,0.9-0.5,1.2-0.9c0.3-0.3,0.6-0.8,0.8-1.3l0.1-0.3l2.8-6.1h24.1l3,6.5
			c0.2,0.5,0.5,0.9,0.8,1.3c0.4,0.4,0.8,0.7,1.2,0.9c0.4,0.2,0.8,0.3,1.3,0.3c0.5,0,1-0.1,1.5-0.3c1.5-0.6,2-1.2,2.3-1.9
			c0.3-0.6,0.5-1.5,0-2.9l-18.3-44.6c-0.5-1.1-1.3-2.1-2.2-2.9c-0.3-0.3-0.7-0.5-1.6-0.5H361.4z M374.6,91.6h-24.1l12.1-29.2
			L374.6,91.6z"/>
	</g>
	<path class="st2" d="M156.7,74.9c0-4.5,0.8-8.7,2.5-12.6c1.7-4,4-7.4,7-10.3c3-2.9,6.4-5.2,10.4-7c4-1.7,8.2-2.6,12.6-2.6
		s8.7,0.9,12.6,2.6c4,1.7,7.4,4,10.3,7c2.9,2.9,5.2,6.4,7,10.3c1.7,4,2.6,8.2,2.6,12.6c0,4.5-0.9,8.7-2.6,12.6c-1.7,4-4,7.4-7,10.4
		c-2.9,3-6.4,5.3-10.3,7c-4,1.7-8.2,2.5-12.6,2.5s-8.7-0.8-12.6-2.5c-4-1.7-7.4-4-10.4-7c-3-3-5.3-6.4-7-10.4
		C157.5,83.6,156.7,79.3,156.7,74.9z M176.1,75.1c0,1.8,0.3,3.5,1,5.1c0.7,1.6,1.6,3,2.8,4.2c1.2,1.2,2.6,2.2,4.2,2.9
		c1.6,0.7,3.3,1.1,5.1,1.1s3.5-0.4,5.1-1.1c1.6-0.7,3-1.7,4.2-2.9c1.2-1.2,2.1-2.7,2.8-4.3c0.7-1.7,1-3.4,1-5.2s-0.3-3.5-1-5.1
		c-0.7-1.6-1.6-3-2.8-4.2c-1.2-1.2-2.6-2.2-4.2-2.9c-1.6-0.7-3.3-1.1-5.1-1.1s-3.5,0.4-5.1,1.1c-1.6,0.7-3,1.7-4.2,2.9
		c-1.2,1.2-2.1,2.7-2.8,4.3C176.4,71.6,176.1,73.3,176.1,75.1z"/>
	<path class="st2" d="M230.2,52.8c-0.1-1.2-0.2-2.4-0.5-3.6c-0.3-1.2-0.4-2.3-0.3-3.3c0.1-1,0.5-1.8,1.3-2.4c0.8-0.7,2.2-1,4.3-1.1
		h21.5c2.8,0,5.3,0.5,7.8,1.6c2.4,1.1,4.6,2.5,6.3,4.3s3.2,3.9,4.3,6.3c1.1,2.4,1.6,5,1.6,7.8c0,2.1-0.3,4-0.9,5.8
		c-0.6,1.8-1.4,3.5-2.5,5c1.4,1.7,2.6,3.7,3.5,5.8s1.3,4.5,1.3,7.1c0,3-0.6,5.7-1.7,8.3c-1.1,2.6-2.7,4.8-4.6,6.8
		c-1.9,1.9-4.2,3.4-6.8,4.5c-2.6,1.1-5.3,1.7-8.3,1.7h-16.5c-1.4,0-2.6-0.3-3.8-0.8c-1.2-0.5-2.2-1.2-3-2.1c-0.9-0.9-1.5-1.9-2.1-3
		c-0.5-1.2-0.8-2.4-0.8-3.8V52.8z M249.6,60v6.1h0.4l6.7-0.2c0.6-0.1,1.2-0.3,1.7-0.8c0.5-0.4,0.7-1,0.7-1.8c0-1-0.3-1.7-0.8-2.3
		c-0.6-0.6-1.2-0.8-1.9-0.8L250,60H249.6z M249.6,81.1v7.1h0.4l6.4-0.2c0.8,0,1.5-0.2,2.3-0.6c0.8-0.4,1.2-1.2,1.2-2.5
		c0-1.2-0.3-2-1-2.6c-0.7-0.6-1.4-0.9-2.2-1l-6.7-0.2H249.6z"/>
	<path class="st2" d="M102.6,52.8c-0.1-1.2-0.2-2.4-0.5-3.6c-0.3-1.2-0.4-2.3-0.3-3.3c0.1-1,0.5-1.8,1.3-2.4c0.8-0.7,2.2-1,4.3-1.1
		h21.5c2.8,0,5.3,0.5,7.8,1.6c2.4,1.1,4.6,2.5,6.3,4.3s3.2,3.9,4.3,6.3c1.1,2.4,1.6,5,1.6,7.8c0,2.1-0.3,4-0.9,5.8
		c-0.6,1.8-1.4,3.5-2.5,5c1.4,1.7,2.6,3.7,3.5,5.8c0.9,2.2,1.3,4.5,1.3,7.1c0,3-0.6,5.7-1.7,8.3c-1.1,2.6-2.7,4.8-4.6,6.8
		c-1.9,1.9-4.2,3.4-6.8,4.5c-2.6,1.1-5.3,1.7-8.3,1.7h-16.5c-1.4,0-2.6-0.3-3.8-0.8c-1.2-0.5-2.2-1.2-3-2.1c-0.9-0.9-1.5-1.9-2.1-3
		c-0.5-1.2-0.8-2.4-0.8-3.8V52.8z M122,60v6.1h0.4l6.7-0.2c0.6-0.1,1.2-0.3,1.7-0.8c0.5-0.4,0.7-1,0.7-1.8c0-1-0.3-1.7-0.8-2.3
		c-0.6-0.6-1.2-0.8-1.9-0.8l-6.4-0.2H122z M122,81.1v7.1h0.4l6.4-0.2c0.8,0,1.5-0.2,2.3-0.6c0.8-0.4,1.2-1.2,1.2-2.5
		c0-1.2-0.3-2-1-2.6c-0.7-0.6-1.4-0.9-2.2-1l-6.7-0.2H122z"/>
	<path class="st2" d="M283.8,52.8c-0.1-1.2-0.2-2.4-0.5-3.6c-0.3-1.2-0.4-2.3-0.3-3.3c0.1-1,0.5-1.8,1.3-2.4c0.8-0.7,2.2-1,4.3-1.1
		H310c2.8,0,5.3,0.5,7.8,1.6c2.4,1.1,4.6,2.5,6.3,4.3s3.2,3.9,4.3,6.3c1.1,2.4,1.6,5,1.6,7.8c0,2.1-0.3,4-0.9,5.8
		c-0.6,1.8-1.4,3.5-2.5,5c1.4,1.7,2.6,3.7,3.5,5.8s1.3,4.5,1.3,7.1c0,3-0.6,5.7-1.7,8.3c-1.1,2.6-2.7,4.8-4.6,6.8
		c-1.9,1.9-4.2,3.4-6.8,4.5c-2.6,1.1-5.3,1.7-8.3,1.7h-16.5c-1.4,0-2.6-0.3-3.8-0.8c-1.2-0.5-2.2-1.2-3-2.1c-0.9-0.9-1.5-1.9-2.1-3
		c-0.5-1.2-0.8-2.4-0.8-3.8V52.8z M303.2,60v6.1h0.4l6.7-0.2c0.6-0.1,1.2-0.3,1.6-0.8c0.5-0.4,0.7-1,0.7-1.8c0-1-0.3-1.7-0.8-2.3
		c-0.6-0.6-1.2-0.8-1.9-0.8l-6.4-0.2H303.2z M303.2,81.1v7.1h0.4L310,88c0.8,0,1.5-0.2,2.3-0.6c0.8-0.4,1.2-1.2,1.2-2.5
		c0-1.2-0.3-2-1-2.6c-0.7-0.6-1.4-0.9-2.2-1l-6.7-0.2H303.2z"/>
	<path class="st2" d="M390.2,94.2c1,2.6,0.9,5.1-0.2,7.5c-1.1,2.4-2.9,4-5.5,5c-1.2,0.5-2.5,0.7-3.8,0.7c-1.3,0-2.5-0.3-3.6-0.8
		c-1.1-0.5-2.2-1.2-3-2.2c-0.9-0.9-1.6-2-2.1-3.2l-1.2-2.7h-16.5l-1.2,2.7c-0.5,1.2-1.2,2.3-2.1,3.2c-0.9,0.9-1.9,1.7-3,2.2
		c-1.1,0.5-2.3,0.8-3.6,0.8c-1.3,0-2.5-0.2-3.8-0.7c-2.6-1-4.5-2.6-5.5-5c-1.1-2.4-1.1-4.9-0.2-7.5l17.3-42.3
		c0.3-0.8,0.6-1.7,0.7-2.8c0.1-1.1,0.4-2.1,0.9-3.1c0.5-1,1.3-1.8,2.4-2.5c1.1-0.7,2.8-1,5.1-1h1.1c2.2,0,4.1,0.7,5.6,2
		c1.5,1.3,2.8,3,3.7,5.1L390.2,94.2z M362.5,78l-3.2,7.7h6.4L362.5,78z"/>
	<linearGradient id="SVGID_1_" gradientUnits="userSpaceOnUse" x1="192.157" y1="107.3686" x2="192.157" y2="42.3628">
		<stop  offset="0" style="stop-color:#FF9300"/>
		<stop  offset="1" style="stop-color:#FFE310"/>
	</linearGradient>
	<path class="st3" d="M159.7,74.9c0-4.5,0.8-8.7,2.5-12.6c1.7-4,4-7.4,7-10.3c3-2.9,6.4-5.2,10.4-7c4-1.7,8.2-2.6,12.6-2.6
		s8.7,0.9,12.6,2.6c4,1.7,7.4,4,10.3,7c2.9,2.9,5.2,6.4,7,10.3c1.7,4,2.6,8.2,2.6,12.6c0,4.5-0.9,8.7-2.6,12.6c-1.7,4-4,7.4-7,10.4
		c-2.9,3-6.4,5.3-10.3,7c-4,1.7-8.2,2.5-12.6,2.5s-8.7-0.8-12.6-2.5c-4-1.7-7.4-4-10.4-7c-3-3-5.3-6.4-7-10.4
		C160.5,83.6,159.7,79.3,159.7,74.9z M179.1,75.1c0,1.8,0.3,3.5,1,5.1c0.7,1.6,1.6,3,2.8,4.2c1.2,1.2,2.6,2.2,4.2,2.9
		c1.6,0.7,3.3,1.1,5.1,1.1s3.5-0.4,5.1-1.1c1.6-0.7,3-1.7,4.2-2.9c1.2-1.2,2.1-2.7,2.8-4.3c0.7-1.7,1-3.4,1-5.2s-0.3-3.5-1-5.1
		c-0.7-1.6-1.6-3-2.8-4.2c-1.2-1.2-2.6-2.2-4.2-2.9c-1.6-0.7-3.3-1.1-5.1-1.1s-3.5,0.4-5.1,1.1c-1.6,0.7-3,1.7-4.2,2.9
		c-1.2,1.2-2.1,2.7-2.8,4.3C179.4,71.6,179.1,73.3,179.1,75.1z"/>
	<linearGradient id="SVGID_2_" gradientUnits="userSpaceOnUse" x1="256.481" y1="107.3686" x2="256.481" y2="42.3628">
		<stop  offset="0" style="stop-color:#FF9300"/>
		<stop  offset="1" style="stop-color:#FFE310"/>
	</linearGradient>
	<path class="st4" d="M233.1,52.8c-0.1-1.2-0.2-2.4-0.5-3.6c-0.3-1.2-0.4-2.3-0.3-3.3c0.1-1,0.5-1.8,1.3-2.4c0.8-0.7,2.2-1,4.3-1.1
		h21.5c2.8,0,5.3,0.5,7.8,1.6c2.4,1.1,4.6,2.5,6.3,4.3s3.2,3.9,4.3,6.3c1.1,2.4,1.6,5,1.6,7.8c0,2.1-0.3,4-0.9,5.8
		c-0.6,1.8-1.4,3.5-2.5,5c1.4,1.7,2.6,3.7,3.5,5.8s1.3,4.5,1.3,7.1c0,3-0.6,5.7-1.7,8.3c-1.1,2.6-2.7,4.8-4.6,6.8
		c-1.9,1.9-4.2,3.4-6.8,4.5c-2.6,1.1-5.3,1.7-8.3,1.7h-16.5c-1.4,0-2.6-0.3-3.8-0.8c-1.2-0.5-2.2-1.2-3-2.1c-0.9-0.9-1.5-1.9-2.1-3
		c-0.5-1.2-0.8-2.4-0.8-3.8V52.8z M252.5,60v6.1h0.4l6.7-0.2c0.6-0.1,1.2-0.3,1.7-0.8c0.5-0.4,0.7-1,0.7-1.8c0-1-0.3-1.7-0.8-2.3
		c-0.6-0.6-1.2-0.8-1.9-0.8l-6.4-0.2H252.5z M252.5,81.1v7.1h0.4l6.4-0.2c0.8,0,1.5-0.2,2.3-0.6c0.8-0.4,1.2-1.2,1.2-2.5
		c0-1.2-0.3-2-1-2.6c-0.7-0.6-1.4-0.9-2.2-1l-6.7-0.2H252.5z"/>
	<linearGradient id="SVGID_3_" gradientUnits="userSpaceOnUse" x1="310.1382" y1="107.3686" x2="310.1382" y2="42.3628">
		<stop  offset="0" style="stop-color:#FF9300"/>
		<stop  offset="1" style="stop-color:#FFE310"/>
	</linearGradient>
	<path class="st5" d="M286.8,52.8c-0.1-1.2-0.2-2.4-0.5-3.6c-0.3-1.2-0.4-2.3-0.3-3.3c0.1-1,0.5-1.8,1.3-2.4c0.8-0.7,2.2-1,4.3-1.1
		H313c2.8,0,5.3,0.5,7.8,1.6c2.4,1.1,4.6,2.5,6.3,4.3s3.2,3.9,4.3,6.3c1.1,2.4,1.6,5,1.6,7.8c0,2.1-0.3,4-0.9,5.8
		c-0.6,1.8-1.4,3.5-2.5,5c1.4,1.7,2.6,3.7,3.5,5.8c0.9,2.2,1.3,4.5,1.3,7.1c0,3-0.6,5.7-1.7,8.3c-1.1,2.6-2.7,4.8-4.6,6.8
		c-1.9,1.9-4.2,3.4-6.8,4.5c-2.6,1.1-5.3,1.7-8.3,1.7h-16.5c-1.4,0-2.6-0.3-3.8-0.8c-1.2-0.5-2.2-1.2-3-2.1c-0.9-0.9-1.5-1.9-2.1-3
		c-0.5-1.2-0.8-2.4-0.8-3.8V52.8z M306.2,60v6.1h0.4l6.7-0.2c0.6-0.1,1.2-0.3,1.7-0.8c0.5-0.4,0.7-1,0.7-1.8c0-1-0.3-1.7-0.8-2.3
		c-0.6-0.6-1.2-0.8-1.9-0.8l-6.4-0.2H306.2z M306.2,81.1v7.1h0.4L313,88c0.8,0,1.5-0.2,2.3-0.6c0.8-0.4,1.2-1.2,1.2-2.5
		c0-1.2-0.3-2-1-2.6c-0.7-0.6-1.4-0.9-2.2-1l-6.7-0.2H306.2z"/>
	<linearGradient id="SVGID_4_" gradientUnits="userSpaceOnUse" x1="365.5054" y1="107.3215" x2="365.5054" y2="42.3628">
		<stop  offset="0" style="stop-color:#FF9300"/>
		<stop  offset="1" style="stop-color:#FFE310"/>
	</linearGradient>
	<path class="st6" d="M393.2,94.2c1,2.6,0.9,5.1-0.2,7.5c-1.1,2.4-2.9,4-5.5,5c-1.2,0.5-2.5,0.7-3.8,0.7c-1.3,0-2.5-0.3-3.6-0.8
		c-1.1-0.5-2.2-1.2-3-2.2c-0.9-0.9-1.6-2-2.1-3.2l-1.2-2.7h-16.5l-1.2,2.7c-0.5,1.2-1.2,2.3-2.1,3.2c-0.9,0.9-1.9,1.7-3,2.2
		c-1.1,0.5-2.3,0.8-3.6,0.8c-1.3,0-2.5-0.2-3.8-0.7c-2.6-1-4.5-2.6-5.5-5c-1.1-2.4-1.1-4.9-0.2-7.5l17.3-42.3
		c0.3-0.8,0.6-1.7,0.7-2.8c0.1-1.1,0.4-2.1,0.9-3.1c0.5-1,1.3-1.8,2.4-2.5c1.1-0.7,2.8-1,5.1-1h1.1c2.2,0,4.1,0.7,5.6,2
		c1.5,1.3,2.8,3,3.7,5.1L393.2,94.2z M365.5,78l-3.2,7.7h6.4L365.5,78z"/>
	<linearGradient id="SVGID_5_" gradientUnits="userSpaceOnUse" x1="129.5889" y1="107.3451" x2="129.5889" y2="42.3392">
		<stop  offset="0" style="stop-color:#FF9300"/>
		<stop  offset="1" style="stop-color:#FFE310"/>
	</linearGradient>
	<path class="st7" d="M106.2,52.8c-0.1-1.2-0.2-2.4-0.5-3.6c-0.3-1.2-0.4-2.3-0.3-3.3c0.1-1,0.5-1.8,1.3-2.4c0.8-0.7,2.2-1,4.3-1.1
		h21.5c2.8,0,5.3,0.5,7.8,1.6c2.4,1.1,4.6,2.5,6.3,4.3s3.2,3.9,4.3,6.3c1.1,2.4,1.6,5,1.6,7.8c0,2.1-0.3,4-0.9,5.8
		c-0.6,1.8-1.4,3.5-2.5,5c1.4,1.7,2.6,3.7,3.5,5.8s1.3,4.5,1.3,7.1c0,3-0.6,5.7-1.7,8.3c-1.1,2.6-2.7,4.8-4.6,6.8
		c-1.9,1.9-4.2,3.4-6.8,4.5c-2.6,1.1-5.3,1.7-8.3,1.7h-16.5c-1.4,0-2.6-0.3-3.8-0.8c-1.2-0.5-2.2-1.2-3-2.1c-0.9-0.9-1.5-1.9-2.1-3
		c-0.5-1.2-0.8-2.4-0.8-3.8V52.8z M125.6,60v6.1h0.4l6.7-0.2c0.6-0.1,1.2-0.3,1.7-0.8c0.5-0.4,0.7-1,0.7-1.8c0-1-0.3-1.7-0.8-2.3
		c-0.6-0.6-1.2-0.8-1.9-0.8L126,60H125.6z M125.6,81v7.1h0.4l6.4-0.2c0.8,0,1.5-0.2,2.3-0.6c0.8-0.4,1.2-1.2,1.2-2.5
		c0-1.2-0.3-2-1-2.6c-0.7-0.6-1.4-0.9-2.2-1L126,81H125.6z"/>
	<g>
		<path class="st8" d="M201.2,100.4c3.4-1.4,6.3-3.4,8.8-5.9c2.5-2.5,4.5-5.5,5.9-8.8c1.4-3.4,2.2-7,2.2-10.8
			c0-3.8-0.7-7.4-2.2-10.8c-1.4-3.4-3.4-6.3-5.9-8.8c-2.5-2.5-5.5-4.5-8.8-5.9c-2.9-1.2-5.9-1.9-9.1-2.1c0.6,0,1.1-0.1,1.7-0.1
			c3.8,0,7.4,0.7,10.8,2.2c3.4,1.5,6.3,3.4,8.8,5.9c2.5,2.5,4.5,5.4,5.9,8.8c1.4,3.4,2.2,7,2.2,10.8c0,3.8-0.7,7.4-2.2,10.8
			c-1.4,3.4-3.4,6.3-5.9,8.8c-2.5,2.5-5.5,4.5-8.8,5.9c-3.4,1.4-7,2.2-10.8,2.2c-0.6,0-1.1,0-1.7-0.1
			C195.3,102.3,198.4,101.6,201.2,100.4z"/>
	</g>
</g>
<path class="st8" d="M365.5,45.6c0,0,4.4,0.1,6.3,3.9c1.9,3.8,19.1,47.8,19.1,47.8s1.3,6.4-5.7,6.4c0,0,5.7-0.7,3.4-5.9
	s-19-47.7-19-47.7S369.7,47.8,365.5,45.6z"/>
<path class="st8" d="M256.4,48.3c0,0,17.7,0,18,10.6C274.7,69.6,277.8,54.2,256.4,48.3z"/>
<path class="st8" d="M309.9,48.3c0,0,17.7,0,18,10.6S331.3,54.2,309.9,48.3z"/>
<path class="st8" d="M129.6,48.3c0,0,17.7,0,18,10.6C148,69.6,151.1,54.2,129.6,48.3z"/>
<g>
	<g>
		<polygon class="st9" points="11.5,127 6,121.4 6,58.4 2.1,58.4 2.1,42 10.2,42 10.2,27.4 23.6,14 42.3,14 42.3,4.1 44.2,2.1 
			48.1,2.1 50.4,3.8 50.4,14 69.3,14 82.6,27.4 82.6,42 90.3,42 90.3,58.4 86.8,58.4 86.8,121.4 81.2,127 		"/>
		<path d="M47.4,4.2l0.9,0.7v11.3h20.1l12.1,12.1v15.9h7.7v12.2h-3.5v64.2l-4.3,4.3H48.4c0,0,0.1-65.8,0-68.6h0v68.6h-4.1V56.4h0
			c-0.1,2.8,0,68.6,0,68.6H12.4l-4.3-4.3V56.4H4.2V44.1h8.1V28.3l12.1-12.1h20V4.9l0.7-0.8H47.4 M48.8,0h-1.4h-2.3h-1.9L42,1.4
			l-0.7,0.8l-1.1,1.2v1.6v7H24.5h-1.7l-1.2,1.2L9.4,25.3l-1.2,1.2v1.7v11.7H4.2H0v4.2v12.2v4.2h3.9v60v1.7l1.2,1.2l4.3,4.3l1.2,1.2
			h1.7h31.9h4.2h4.1h27.7h1.7l1.2-1.2l4.3-4.3l1.2-1.2v-1.7v-60h3.5v-4.2V44.1v-4.2h-4.2h-3.5V28.3v-1.7l-1.2-1.2L71.4,13.2
			l-1.2-1.2h-1.7H52.5V4.9V2.7l-1.7-1.3l-0.9-0.7L48.8,0L48.8,0z"/>
	</g>
	<linearGradient id="SVGID_6_" gradientUnits="userSpaceOnUse" x1="8.0559" y1="90.5807" x2="44.3257" y2="90.5807">
		<stop  offset="0" style="stop-color:#FFE310"/>
		<stop  offset="1" style="stop-color:#FF9300"/>
	</linearGradient>
	<path class="st10" d="M44.3,56.3L8.1,56.4v64.2l4.3,4.3h31.9C44.3,124.9,44.2,56.2,44.3,56.3z"/>
	<path class="st11" d="M48.4,56.3l36.3,0.1v64.2l-4.3,4.3H48.4C48.4,124.9,48.5,56.2,48.4,56.3z"/>
	<g>
		<rect x="12.3" y="64.3" class="st12" width="4.3" height="4.3"/>
		<rect x="19.9" y="64.3" class="st12" width="4.3" height="4.3"/>
		<rect x="28.3" y="64.3" class="st12" width="4.3" height="4.3"/>
		<rect x="36.3" y="64.3" class="st12" width="4.3" height="4.3"/>
		<rect x="12.3" y="72.4" class="st12" width="4.3" height="4.3"/>
		<rect x="19.9" y="72.4" class="st12" width="4.3" height="4.3"/>
		<rect x="28.3" y="72.4" class="st12" width="4.3" height="4.3"/>
		<rect x="36.3" y="72.4" class="st12" width="4.3" height="4.3"/>
		<rect x="12.3" y="80.5" class="st12" width="4.3" height="4.3"/>
		<rect x="19.9" y="80.5" class="st12" width="4.3" height="4.3"/>
		<rect x="28.3" y="80.5" class="st12" width="4.3" height="4.3"/>
		<rect x="36.3" y="80.5" class="st12" width="4.3" height="4.3"/>
		<rect x="12.3" y="96.7" class="st12" width="4.3" height="4.3"/>
		<rect x="19.9" y="96.7" class="st12" width="4.3" height="4.3"/>
		<rect x="28.3" y="96.7" class="st12" width="4.3" height="4.3"/>
		<rect x="36.3" y="96.7" class="st12" width="4.3" height="4.3"/>
		<rect x="12.3" y="104.7" class="st12" width="4.3" height="4.3"/>
		<rect x="19.9" y="104.7" class="st12" width="4.3" height="4.3"/>
		<rect x="28.3" y="104.7" class="st12" width="4.3" height="4.3"/>
		<rect x="36.3" y="104.7" class="st12" width="4.3" height="4.3"/>
		<rect x="12.3" y="112.6" class="st12" width="4.3" height="4.3"/>
		<rect x="19.9" y="112.6" class="st12" width="4.3" height="4.3"/>
		<rect x="28.3" y="112.6" class="st12" width="4.3" height="4.3"/>
		<rect x="36.3" y="112.6" class="st12" width="4.3" height="4.3"/>
		<rect x="52.4" y="64.3" class="st13" width="4.3" height="4.3"/>
		<rect x="60" y="64.3" class="st13" width="4.3" height="4.3"/>
		<rect x="68.4" y="64.3" class="st13" width="4.3" height="4.3"/>
		<rect x="76.4" y="64.3" class="st13" width="4.3" height="4.3"/>
		<rect x="52.4" y="72.4" class="st13" width="4.3" height="4.3"/>
		<rect x="60" y="72.4" class="st13" width="4.3" height="4.3"/>
		<rect x="68.4" y="72.4" class="st13" width="4.3" height="4.3"/>
		<rect x="76.4" y="72.4" class="st13" width="4.3" height="4.3"/>
		<rect x="52.4" y="80.5" class="st13" width="4.3" height="4.3"/>
		<rect x="60" y="80.5" class="st13" width="4.3" height="4.3"/>
		<rect x="68.4" y="80.5" class="st13" width="4.3" height="4.3"/>
		<rect x="76.4" y="80.5" class="st13" width="4.3" height="4.3"/>
		<rect x="52.4" y="96.7" class="st13" width="4.3" height="4.3"/>
		<rect x="60" y="96.7" class="st13" width="4.3" height="4.3"/>
		<rect x="68.4" y="96.7" class="st13" width="4.3" height="4.3"/>
		<rect x="76.4" y="96.7" class="st13" width="4.3" height="4.3"/>
		<rect x="52.4" y="104.7" class="st13" width="4.3" height="4.3"/>
		<rect x="60" y="104.7" class="st13" width="4.3" height="4.3"/>
		<rect x="68.4" y="104.7" class="st13" width="4.3" height="4.3"/>
		<rect x="76.4" y="104.7" class="st13" width="4.3" height="4.3"/>
		<rect x="52.4" y="112.6" class="st13" width="4.3" height="4.3"/>
		<rect x="60" y="112.6" class="st13" width="4.3" height="4.3"/>
		<rect x="68.4" y="112.6" class="st13" width="4.3" height="4.3"/>
		<rect x="76.4" y="112.6" class="st13" width="4.3" height="4.3"/>
	</g>
	<polygon class="st9" points="12.3,44.1 12.3,28.3 24.5,16.1 68.4,16.1 80.5,28.3 80.5,44.1 	"/>
	<rect x="34.2" y="124.6" class="st14" width="4.3" height="8.3"/>
	<rect x="54.6" y="124.6" class="st14" width="4.3" height="8.3"/>
	<polygon class="st15" points="34.2,124.9 34.2,109.7 35.1,108.8 57.3,108.8 58,108.8 59,109.8 59,124.9 	"/>
	<polygon class="st12" points="84.6,56.4 48.5,56.4 48.5,56.3 44.4,56.3 44.4,56.4 44.4,60.4 44.4,124.9 48.5,124.9 48.5,60.4 
		84.6,60.4 	"/>
	<polygon class="st16" points="12.4,125.1 16.3,121.2 30.2,121.2 30.2,125.1 	"/>
	<polygon class="st17" points="80.3,125.1 76.4,121.2 62.5,121.2 62.5,125.1 	"/>
	<g>
		<polygon class="st15" points="52.5,135 52.5,127 40.5,127 40.5,135 32.1,135 32.1,108.9 34.2,106.7 58.9,106.7 61.1,108.9 
			61.1,127 60.9,127 60.9,135 		"/>
		<path d="M58,108.8l1,1v15.1h-0.1v8h-4.3v-8H38.4v8h-4.3v-8v-0.3v-14.8l0.9-0.9h22.2H58 M59.8,104.6H58h-0.7H35.1h-1.8l-1.2,1.3
			l-0.9,0.9L30,108v1.7v14.8v0.3v8v4.2h4.2h4.3h4.2v-4.2v-3.8h7.7v3.8v4.2h4.2h4.3H63v-4.2v-3.8h0.1v-4.2v-15.1v-1.7l-1.2-1.2l-1-1
			L59.8,104.6L59.8,104.6z"/>
	</g>
	<rect x="4.2" y="44.1" class="st9" width="40.2" height="12.2"/>
	<rect x="44.4" y="44.1" class="st18" width="43.8" height="12.2"/>
	<rect x="12.3" y="40.1" class="st18" width="32.1" height="4"/>
	<polyline class="st18" points="44.4,40.1 44.4,36.3 64.3,16.4 68.5,16.4 80.4,28.4 80.4,44.1 44.4,44.1 44.4,36.3 	"/>
	<rect x="44.4" y="40.1" class="st14" width="36.1" height="4"/>
	<rect x="20.2" y="28.3" class="st19" width="3.8" height="8"/>
	<rect x="28.4" y="28.3" class="st19" width="3.8" height="8"/>
	<rect x="36.6" y="28.3" class="st19" width="3.8" height="8"/>
	<rect x="52.4" y="28.3" class="st20" width="3.8" height="8"/>
	<rect x="60.6" y="28.3" class="st20" width="3.8" height="8"/>
	<rect x="68.8" y="28.3" class="st20" width="3.8" height="8"/>
	<polygon class="st14" points="60.3,20.1 64.3,16.1 68.5,16.1 72.4,20 	"/>
	<polygon class="st18" points="24.5,16.1 20.6,20 37.8,20 44.5,26.7 45.8,26.7 52.4,20.2 60.3,20.2 64.3,16.1 	"/>
	<polygon class="st9" points="44.4,16.1 44.4,4.9 45.1,4.2 47.4,4.2 48.3,4.9 48.3,16.1 	"/>
	<rect x="8.1" y="56.4" class="st21" width="36.4" height="4.1"/>
	<polygon class="st22" points="38.3,120.8 54.4,120.8 54.4,109.9 53.3,108.8 39.3,108.8 38.4,109.7 	"/>
</g>
</svg>
