<?xml version="1.0" encoding="utf-8"?>
<!-- Generator: Adobe Illustrator 24.1.1, SVG Export Plug-In . SVG Version: 6.00 Build 0)  -->
<svg version="1.1" id="Livello_1" xmlns="http://www.w3.org/2000/svg" xmlns:xlink="http://www.w3.org/1999/xlink" x="0px" y="0px"
	 viewBox="0 0 136 136" style="enable-background:new 0 0 136 136;" xml:space="preserve">
<style type="text/css">
	.st0{fill:#FFFFFF;}
</style>
<g>
	<g>
		<path class="st0" d="M16.4,76.7l31.4,31.4c4.6,4.6,12.1,4.6,16.7,0c4.6-4.6,4.6-12.1,0-16.7L41.4,68.3l23.1-23.1
			c4.6-4.6,4.6-12.1,0-16.7c-2.3-2.3-5.3-3.5-8.3-3.5c-3,0-6,1.1-8.3,3.4L16.4,60C11.9,64.6,11.9,72,16.4,76.7z"/>
	</g>
</g>
<g>
	<g>
		<path class="st0" d="M71.5,76.7l31.4,31.4c4.6,4.6,12.1,4.6,16.7,0c4.6-4.6,4.6-12.1,0-16.7L96.5,68.3l23.1-23.1
			c4.6-4.6,4.6-12.1,0-16.7c-2.3-2.3-5.3-3.5-8.3-3.5s-6,1.1-8.3,3.4L71.5,60C66.9,64.6,66.9,72,71.5,76.7z"/>
	</g>
</g>
</svg>
