<?xml version="1.0" encoding="utf-8"?>
<!-- Generator: Adobe Illustrator 24.1.1, SVG Export Plug-In . SVG Version: 6.00 Build 0)  -->
<svg version="1.1" id="Livello_1" xmlns="http://www.w3.org/2000/svg" xmlns:xlink="http://www.w3.org/1999/xlink" x="0px" y="0px"
	 viewBox="0 0 136 136" style="enable-background:new 0 0 136 136;" xml:space="preserve">
<style type="text/css">
	.st0{fill:#3F3F3F;}
</style>
<g>
	<g>
		<g>
			<path class="st0" d="M68,12.7c-30.5,0-55.3,24.8-55.3,55.3s24.8,55.3,55.3,55.3s55.3-24.8,55.3-55.3S98.5,12.7,68,12.7z
				 M93.1,75.6H66.9c-0.1,0-0.1,0-0.2,0c-0.1,0-0.1,0-0.2,0c-2.6,0-4.7-2.1-4.7-4.7V33c0-2.6,2.1-4.7,4.7-4.7c2.6,0,4.7,2.1,4.7,4.7
				v33.3h21.8c2.6,0,4.7,2.1,4.7,4.7C97.7,73.5,95.6,75.6,93.1,75.6z"/>
		</g>
	</g>
</g>
</svg>
